<svg xmlns="http://www.w3.org/2000/svg" viewBox="0 0 89.19 68.87"><defs><style>.cls-1{fill:#f7ffd7;}</style></defs><title>Asset 11</title><g id="Layer_2" data-name="Layer 2"><g id="Layer_1-2" data-name="Layer 1"><path class="cls-1" d="M6.85,3.21A4.25,4.25,0,0,0,2.62,7.43V48.74A4.25,4.25,0,0,0,6.85,53H64.93L74.25,60V53h8a4.25,4.25,0,0,0,4.22-4.22V7.43a4.25,4.25,0,0,0-4.22-4.22Z"/><path d="M31.78,29.18a4.6,4.6,0,1,1-4.6-4.6A4.58,4.58,0,0,1,31.78,29.18Zm12.79-4.6a4.6,4.6,0,1,0,4.6,4.6A4.58,4.58,0,0,0,44.57,24.58Zm17.38,0a4.6,4.6,0,1,0,4.6,4.6A4.58,4.58,0,0,0,62,24.58Zm15.5,44.29L61.62,56.53H8.47A8.47,8.47,0,0,1,0,48.06V8.47A8.47,8.47,0,0,1,8.47,0H80.72a8.47,8.47,0,0,1,8.47,8.47V48a8.47,8.47,0,0,1-8.47,8.47H77.51ZM8.47,4.43a4.06,4.06,0,0,0-4,4V48a4.06,4.06,0,0,0,4,4H64.06L73,58.8V52h7.7a4.06,4.06,0,0,0,4-4V8.47a4.06,4.06,0,0,0-4-4Z"/></g></g></svg>