<svg xmlns="http://www.w3.org/2000/svg" viewBox="0 0 87.61 105.81"><defs><style>.cls-1{fill:#0068ff;}</style></defs><title>create-call</title><g id="Layer_2" data-name="Layer 2"><g id="Layer_1-2" data-name="Layer 1"><path d="M53.73,35.31,45.91,97.4l-16-14.22L19.84,101.07,15,98.34,25.05,80.45,4.79,74.05,53.73,35.31m0-4.74a4.55,4.55,0,0,0-3,1.07L1.83,70.38A4.87,4.87,0,0,0,.05,75a4.82,4.82,0,0,0,3.2,3.67L17.94,83.3l-7.23,12.8a4.66,4.66,0,0,0,1.78,6.4l4.86,2.73a5.39,5.39,0,0,0,2.37.59,4.86,4.86,0,0,0,1.3-.12,4.91,4.91,0,0,0,2.84-2.25l7.23-12.8,11.61,10.19A4.39,4.39,0,0,0,45.79,102a3.78,3.78,0,0,0,1.66-.36,4.81,4.81,0,0,0,3.08-3.79l7.82-62.09A4.81,4.81,0,0,0,56,31a4.51,4.51,0,0,0-2.25-.47Z"/><path class="cls-1" d="M65.1,60.43a2.42,2.42,0,0,1-2.25-1.66,2.4,2.4,0,0,1,1.54-3A26.06,26.06,0,1,0,30.62,30.93a24,24,0,0,0,.83,6.52,2.33,2.33,0,1,1-4.5,1.18A28.3,28.3,0,0,1,26,30.81a30.81,30.81,0,1,1,39.93,29.5A2.31,2.31,0,0,1,65.1,60.43Z"/></g></g></svg>