<svg xmlns="http://www.w3.org/2000/svg" viewBox="0 0 174 116"><defs><style>.cls-1{fill:#0068ff;}</style></defs><title>direct-mail</title><g id="Layer_2" data-name="Layer 2"><g id="Layer_1-2" data-name="Layer 1"><path d="M1.93,0A2,2,0,0,0,0,1.93V102.47a2,2,0,0,0,1.93,1.93H121.86A29,29,0,1,0,162.4,63.86V1.93A2,2,0,0,0,160.47,0ZM7.25,3.87h147.9L81.2,65.19ZM3.87,6l55,45.68-55,46.16ZM158.53,6V61.38a28.77,28.77,0,0,0-35.46,6.77L103.49,51.72ZM61.93,54.19,80,69.18a1.93,1.93,0,0,0,2.42,0l18.06-15,20.24,17a28.86,28.86,0,0,0-1.33,29.36H6.71L61.93,54.19ZM145,61.87A25.13,25.13,0,1,1,119.87,87,25.1,25.1,0,0,1,145,61.87Z"/><path class="cls-1" d="M158.17,77.33a1.63,1.63,0,0,0-1.15.72L142.7,95.94l-12-8.58a1.95,1.95,0,1,0-2.3,3.14l13.53,9.67a2,2,0,0,0,2.66-.36L160,80.48a1.89,1.89,0,0,0-.36-2.78,2.15,2.15,0,0,0-1.51-.36Z"/></g></g></svg>