<svg xmlns="http://www.w3.org/2000/svg" viewBox="0 0 68.84 68.87"><defs><style>.cls-1{fill:#00ffa3;}</style></defs><title>direct-message-on</title><g id="Layer_2" data-name="Layer 2"><g id="Layer_1-2" data-name="Layer 1"><path class="cls-1" d="M1.45,31.65l23.81,12L37.09,67.43a2.43,2.43,0,0,0,2.24,1.45h.13a2.42,2.42,0,0,0,2.24-1.58l27-63.79A2.64,2.64,0,0,0,68.13.74,2.44,2.44,0,0,0,65.37.22L1.58,27A2.56,2.56,0,0,0,0,29.28,2.48,2.48,0,0,0,1.45,31.65ZM39.19,60.19l-8.94-18L58.92,13.5ZM55.37,9.95,26.7,38.62l-18-9.08Z"/></g></g></svg>