<svg xmlns="http://www.w3.org/2000/svg" viewBox="0 0 83.85 56.57"><defs><style>.cls-1{fill:#fff;}</style></defs><title>Asset 9</title><g id="Layer_2" data-name="Layer 2"><g id="Layer_1-2" data-name="Layer 1"><rect width="83.85" height="56.57" rx="5" ry="5"/><path class="cls-1" d="M51.65,30.64A10.26,10.26,0,1,1,61.9,20.38,10.27,10.27,0,0,1,51.65,30.64Z"/><path class="cls-1" d="M70.23,45.28h0A10.81,10.81,0,0,0,59.42,34.47H43.87A10.81,10.81,0,0,0,33.07,45.28h0a1.17,1.17,0,0,0,1.17,1.17H69.06A1.17,1.17,0,0,0,70.23,45.28Z"/><polygon class="cls-1" points="34.66 27.02 25.13 27.02 25.13 17.5 23.15 17.5 23.15 27.02 13.62 27.02 13.62 29 23.15 29 23.15 38.53 25.13 38.53 25.13 29 34.66 29 34.66 27.02"/></g></g></svg>