<svg xmlns="http://www.w3.org/2000/svg" viewBox="0 0 284.34 242.44"><defs><style>.cls-1{fill:none;}.cls-2{fill:#0068ff;}.cls-3{fill:#fff;}</style></defs><title>grow-organic</title><g id="Layer_2" data-name="Layer 2"><g id="Layer_1-2" data-name="Layer 1"><rect class="cls-1" x="81.88" y="122.87" width="14.9" height="74.48"/><path class="cls-1" d="M171.26,78.2V141A63.33,63.33,0,0,1,186.17,127V78.2Z"/><rect class="cls-1" x="126.55" y="100.56" width="14.9" height="96.79"/><rect class="cls-1" x="37.22" y="145.18" width="14.9" height="52.12"/><path d="M171.26,78.2h14.9V127a62.91,62.91,0,0,1,7.41-4.26v-52H163.81v82.56A63,63,0,0,1,171.26,141Z"/><path d="M148.91,197.34V93.06H119.14V197.3h-14.9V115.42H74.43v81.93H59.53V137.77H29.76v59.57H14.86V0H7.41V18.63H0v7.45H7.45V48.44H0v7.45H7.45V78.25H0V85.7H7.45v22.36H0v7.36H7.45v22.36H0v7.45H7.45v22.36H0V175H7.45v22.36l-.07,7.37H163.44a62.51,62.51,0,0,1-2.71-7.41Zm-96.79,0H37.22V145.18h14.9Zm44.67,0H81.88V122.87h14.9Zm44.67,0h-14.9V100.56h14.9Z"/><polygon class="cls-2" points="80.25 66.48 87.7 88.79 132.18 44.35 139.64 70.39 186.12 23.9 186.12 37.22 193.57 37.22 193.57 11.18 167.54 11.18 167.54 18.63 180.9 18.63 143.32 56.21 135.87 30.13 90.97 75.02 83.52 52.66 27.13 109.06 32.4 114.33 80.25 66.48"/><path class="cls-3" d="M261.25,134.72v-5.57a1.89,1.89,0,1,1,3.78,0v5.57h5.56a1.89,1.89,0,1,1,0,3.77H265v1.37a59.75,59.75,0,0,1,7.18,9.73A15.75,15.75,0,1,0,250,127.95a59.67,59.67,0,0,1,9.68,6.77Z"/><path class="cls-3" d="M272.09,155.94a21.2,21.2,0,0,1-28.35-27.86,56.12,56.12,0,1,0,28.35,27.86Zm-51,76.06a52.16,52.16,0,0,1-39.42-18A56.14,56.14,0,0,1,209,201h0s2.91-2.22,2.46-5c-.2-1.28-4.25-5.54-4.25-5.54h0a25.14,25.14,0,0,1-6.18-16.8c0-12.87,9-23.31,20-23.31s20.05,10.43,20.05,23.31a25.15,25.15,0,0,1-6.18,16.8h0s-4.05,4.27-4.25,5.54c-.45,2.82,2.46,5,2.46,5h0a56.1,56.1,0,0,1,27.33,13A52.16,52.16,0,0,1,221.13,232Z"/><path class="cls-3" d="M265,139.86v4.2a1.89,1.89,0,1,1-3.78,0v-5.57h-5.56a1.89,1.89,0,1,1,0-3.77h4a59.67,59.67,0,0,0-9.68-6.77,15.75,15.75,0,0,0,22.17,21.64A59.75,59.75,0,0,0,265,139.86Z"/><path class="cls-2" d="M284.34,136.73a21.2,21.2,0,0,0-36.74-14.46A62.94,62.94,0,1,0,277.85,152,21.15,21.15,0,0,0,284.34,136.73Zm-63.21,98.83a56.12,56.12,0,1,1,22.61-107.47,21.19,21.19,0,0,0,28.35,27.86,56.11,56.11,0,0,1-51,79.61Zm42-83.07a15.79,15.79,0,1,1,9.09-2.9A15.76,15.76,0,0,1,263.11,152.49Z"/><path class="cls-2" d="M270.59,138.49a1.89,1.89,0,1,0,0-3.77H265v-5.57a1.89,1.89,0,1,0-3.78,0v5.57h-5.56a1.89,1.89,0,1,0,0,3.77h5.56v5.57a1.89,1.89,0,1,0,3.78,0v-5.57Z"/><path class="cls-2" d="M233.24,201s-2.91-2.22-2.46-5c.2-1.28,4.25-5.54,4.25-5.54h0a25.15,25.15,0,0,0,6.18-16.8c0-12.87-9-23.31-20.05-23.31s-20,10.43-20,23.31a25.14,25.14,0,0,0,6.18,16.8h0s4,4.27,4.25,5.54c.45,2.82-2.46,5-2.46,5h0a56.14,56.14,0,0,0-27.33,13,52.25,52.25,0,0,0,78.85,0,56.1,56.1,0,0,0-27.33-13Z"/></g></g></svg>