<svg xmlns="http://www.w3.org/2000/svg" viewBox="0 0 55.35 55.87"><title>hashtag-plus</title><g id="Layer_2" data-name="Layer 2"><g id="Layer_1-2" data-name="Layer 1"><path d="M36.41,30.11a3.22,3.22,0,0,0,0-6.43H32.56l.84-4a3.22,3.22,0,0,0-2.49-3.8,3.28,3.28,0,0,0-.66-.07,3.23,3.23,0,0,0-3.15,2.56L26,23.68H18.85l.85-4.08a3.22,3.22,0,0,0-3.15-3.87,3.23,3.23,0,0,0-3.14,2.56l-1.12,5.4H5.61a3.21,3.21,0,1,0,0,6.43h5.33L8.79,40.43H3.21a3.21,3.21,0,0,0,0,6.43H7.46L6.39,52a3.22,3.22,0,0,0,2.49,3.8,3.27,3.27,0,0,0,.66.07,3.23,3.23,0,0,0,3.15-2.56L14,46.86h7.15L20.1,52a3.22,3.22,0,0,0,6.3,1.31l1.34-6.46H34a3.22,3.22,0,0,0,0-6.43H29.08l2.15-10.32h5.19Zm-11.76,0L22.51,40.42H15.36l2.15-10.32Z"/><path d="M55.35,7.86a1.59,1.59,0,0,1-1.59,1.59H49.08v4.68h0a1.59,1.59,0,0,1-3.18,0h0V9.45H41.22a1.59,1.59,0,1,1,0-3.18H45.9V1.59h0a1.59,1.59,0,1,1,3.18,0h0V6.27h4.68A1.59,1.59,0,0,1,55.35,7.86Z"/></g></g></svg>