<svg xmlns="http://www.w3.org/2000/svg" viewBox="0 0 75.96 65.99"><title>Asset 1</title><g id="Layer_2" data-name="Layer 2"><g id="Layer_1-2" data-name="Layer 1"><path d="M20.26,0A20.13,20.13,0,0,0,5.92,6a20.54,20.54,0,0,0,0,28.84L35.82,65.09a3,3,0,0,0,4.24,0l0,0L70,34.88A20.57,20.57,0,0,0,70,6,20.17,20.17,0,0,0,41.38,6L38,9.41,34.57,6A20.06,20.06,0,0,0,20.26,0Zm0,5.94a14.11,14.11,0,0,1,10.06,4.25l5.53,5.63a3,3,0,0,0,4.24,0l0,0,5.5-5.56a14.06,14.06,0,0,1,20.16,0,14.41,14.41,0,0,1,0,20.38L38,58.72,10.17,30.59a14.45,14.45,0,0,1,0-20.41A14.17,14.17,0,0,1,20.26,5.94Z"/></g></g></svg>