<svg xmlns="http://www.w3.org/2000/svg" viewBox="0 0 558.27 285.85"><defs><style>.cls-1{fill:none;}.cls-2{fill:#fff;}.cls-3{fill:#0068ff;}.cls-4{fill:#ff0037;}</style></defs><title>how-works-head</title><g id="Layer_2" data-name="Layer 2"><g id="Layer_1-2" data-name="Layer 1"><circle class="cls-1" cx="214.77" cy="227.7" r="7.1"/><path class="cls-1" d="M120.2,236.84,111.08,246l29.32,29.32a6.45,6.45,0,1,0,9.12-9.12Z"/><rect class="cls-1" x="399.46" y="128.16" width="9.58" height="33.49"/><path class="cls-1" d="M168,210.56h93.32V57.72H168Zm59.34-40.44h-4L221.72,178h3.77a2.46,2.46,0,0,1,0,4.91h-4.8l-1,4.93a2.45,2.45,0,0,1-2.9,1.9,2.45,2.45,0,0,1-1.9-2.9l.82-3.93h-5.46l-1,4.9a2.46,2.46,0,0,1-2.4,2,2.5,2.5,0,0,1-.5-.05,2.46,2.46,0,0,1-1.9-2.9l.81-3.9H202a2.45,2.45,0,1,1,0-4.91h4.26l1.64-7.88H203.8a2.45,2.45,0,1,1,0-4.91h5.1l.86-4.12a2.46,2.46,0,0,1,2.4-2,2.46,2.46,0,0,1,2.41,3l-.65,3.12h5.46l.85-4.08a2.47,2.47,0,0,1,2.4-2,2.5,2.5,0,0,1,.5.05,2.46,2.46,0,0,1,1.9,2.9l-.64,3.08h2.94a2.46,2.46,0,0,1,0,4.91ZM182.69,88A17.82,17.82,0,0,1,191,80.42c6.86-3.18,15.43-1.71,23,3.67,6.61-5.63,14.94-7.1,22.29-4.16,7.84,3.18,12.49,10.78,12.49,20.33,0,19.59-31.35,39.92-32.58,40.66l-2,1.22-2-1.22c-1.47-1-32.82-21.06-32.58-40.41A24.81,24.81,0,0,1,182.69,88Z"/><path class="cls-1" d="M8.46,273.45a4,4,0,1,0,4,4A4,4,0,0,0,8.46,273.45Z"/><path class="cls-1" d="M202,47.67h25.23a3.35,3.35,0,0,0,3.43-3.43,3.5,3.5,0,0,0-3.43-3.43H202a3.43,3.43,0,0,0,0,6.86Z"/><path class="cls-1" d="M64.62,150.19a40.26,40.26,0,1,0,40.26,40.26A40.34,40.34,0,0,0,64.62,150.19ZM33.19,183.81a30.24,30.24,0,0,0-.51,5.76,19.8,19.8,0,0,0,.07,2.12,2.15,2.15,0,0,1-2,2.33c-.07-.07-.07-.07-.15-.07a2.17,2.17,0,0,1-2.19-2c-.07-.8-.07-1.6-.07-2.41a38.36,38.36,0,0,1,.58-6.49,2.19,2.19,0,1,1,4.3.8Zm2.55-7.88a2.36,2.36,0,0,1-2,1.17,2.25,2.25,0,0,1-.95-.22,2.19,2.19,0,0,1-1-2.92,36.39,36.39,0,0,1,32.67-20.64,31.81,31.81,0,0,1,3.72.22,2.2,2.2,0,1,1-.44,4.38c-1.09-.07-2.19-.15-3.28-.15A32,32,0,0,0,35.74,175.94Zm56.16-7.51L83,178.71a22.13,22.13,0,0,1-26.48,35.15l-5.69,7.44a2.19,2.19,0,0,1-3.06.44,2.14,2.14,0,0,1-.44-3.06L53,211.24A22.15,22.15,0,0,1,67.9,172.66,21.84,21.84,0,0,1,79.57,176l9-10.43a2.17,2.17,0,0,1,3.28,2.84Z"/><path class="cls-1" d="M108.31,224.95a59.86,59.86,0,0,1-9.12,9.12l3.57,3.57,9.12-9.12Z"/><rect class="cls-1" x="105.03" y="235.69" width="12.89" height="3.09" transform="translate(-135.1 148.31) rotate(-45)"/><path class="cls-1" d="M115.89,190.45a51.27,51.27,0,1,0-51.27,51.27A51.39,51.39,0,0,0,115.89,190.45ZM64.62,235a44.64,44.64,0,1,1,44.64-44.64A44.68,44.68,0,0,1,64.62,235Z"/><polygon class="cls-1" points="211.25 178 216.71 178 218.35 170.12 212.89 170.12 211.25 178"/><path class="cls-1" d="M485.6,85.12v40.33a40.7,40.7,0,0,1,9.58-9V85.12Z"/><rect class="cls-1" x="428.17" y="113.82" width="9.58" height="47.86"/><path class="cls-1" d="M544.63,136.37a13.62,13.62,0,0,1-12.45-19.2,36.06,36.06,0,1,0,18.22,17.9A13.56,13.56,0,0,1,544.63,136.37Zm-27,47.58a33.52,33.52,0,0,1-25.33-11.54,36.08,36.08,0,0,1,17.56-8.35h0s1.87-1.43,1.58-3.24c-.13-.82-2.73-3.56-2.73-3.56h0a16.16,16.16,0,0,1-4-10.79c0-8.27,5.77-15,12.88-15s12.88,6.71,12.88,15a16.16,16.16,0,0,1-4,10.79h0s-2.6,2.74-2.73,3.56c-.29,1.81,1.58,3.24,1.58,3.24h0A36.05,36.05,0,0,1,543,172.41,33.52,33.52,0,0,1,517.65,184Z"/><rect class="cls-1" x="456.87" y="99.48" width="9.58" height="62.2"/><polygon class="cls-2" points="295.21 55.93 302.84 48.49 295.21 48.49 295.21 55.93"/><path class="cls-2" d="M339.7,39.54V9.89a4.88,4.88,0,0,0-4.94-4.94H285.33a4.88,4.88,0,0,0-4.94,4.94V39.54a4.88,4.88,0,0,0,4.94,4.94h7.41A2.47,2.47,0,0,1,295.21,47v1.53h7.63l3.38-3.3a2.47,2.47,0,0,1,1.72-.7h26.82A4.88,4.88,0,0,0,339.7,39.54ZM310,22.24a2.47,2.47,0,1,1-2.47,2.47A2.47,2.47,0,0,1,310,22.24Zm-9.89,0a2.47,2.47,0,1,1-2.47,2.47A2.47,2.47,0,0,1,300.15,22.24Zm19.77,4.94a2.47,2.47,0,1,1,2.47-2.47A2.47,2.47,0,0,1,319.93,27.19Z"/><path d="M485.6,85.12h9.58V116.5a40.44,40.44,0,0,1,4.76-2.73V80.33H480.82v53.06a40.46,40.46,0,0,1,4.79-7.93Z"/><path d="M471.24,161.68v-67H452.11v67h-9.58V109H423.38v52.65H413.8V123.4H394.68v38.28H385.1V34.86h-4.79v12h-4.76v4.79h4.79V66h-4.79v4.79h4.79V85.15h-4.79v4.79h4.79V104.3h-4.79V109h4.79V123.4h-4.79v4.79h4.79v14.37h-4.79v4.79h4.79v14.37l0,4.74H480.58a40.17,40.17,0,0,1-1.74-4.76Zm-62.2,0h-9.58V128.16H409Zm28.7,0h-9.58V113.82h9.58Zm28.7,0h-9.58V99.48h9.58Z"/><polygon class="cls-3" points="427.12 77.58 431.91 91.92 460.49 63.36 465.28 80.09 495.15 50.22 495.15 58.78 499.94 58.78 499.94 42.05 483.21 42.05 483.21 46.84 491.8 46.84 467.65 70.98 462.86 54.22 434.01 83.07 429.22 68.71 392.98 104.94 396.37 108.33 427.12 77.58"/><path class="cls-2" d="M544.63,132.85a10.13,10.13,0,1,0-10.13-10.13A10.13,10.13,0,0,0,544.63,132.85Zm-4.77-11.42h3.58v-3.58a1.21,1.21,0,1,1,2.43,0v3.58h3.58a1.21,1.21,0,1,1,0,2.43h-3.58v3.58a1.21,1.21,0,1,1-2.43,0v-3.58h-3.58a1.21,1.21,0,1,1,0-2.43Z"/><path d="M558.27,122.73a13.63,13.63,0,0,0-23.61-9.29,40.45,40.45,0,1,0,19.44,19.1A13.59,13.59,0,0,0,558.27,122.73ZM544.63,112.6a10.13,10.13,0,1,1-10.13,10.13A10.13,10.13,0,0,1,544.63,112.6Zm-27,73.63a36.06,36.06,0,1,1,14.53-69.06,13.62,13.62,0,0,0,18.22,17.9,36.06,36.06,0,0,1-32.74,51.16Z"/><path d="M525.43,164.05s-1.87-1.43-1.58-3.24c.13-.82,2.73-3.56,2.73-3.56h0a16.16,16.16,0,0,0,4-10.79c0-8.27-5.77-15-12.88-15s-12.88,6.71-12.88,15a16.16,16.16,0,0,0,4,10.79h0s2.6,2.74,2.73,3.56c.29,1.81-1.58,3.24-1.58,3.24h0a36.08,36.08,0,0,0-17.56,8.35,33.58,33.58,0,0,0,50.67,0,36.05,36.05,0,0,0-17.56-8.35Z"/><path d="M539.85,123.86h3.58v3.58a1.21,1.21,0,1,0,2.43,0v-3.58h3.58a1.21,1.21,0,1,0,0-2.43h-3.58v-3.58a1.21,1.21,0,1,0-2.43,0v3.58h-3.58a1.21,1.21,0,1,0,0,2.43Z"/><path d="M363.68,55.09l-7.5-7.39a2.47,2.47,0,1,0-3.47,3.51l3.2,3.16H337.23a2.47,2.47,0,0,0-.07,4.94h18.77l-3.21,3.17A2.47,2.47,0,0,0,356,66.19l.2-.19,7.5-7.39a2.47,2.47,0,0,0,0-3.5Z"/><path d="M344.64,39.54V9.89A9.92,9.92,0,0,0,334.76,0H285.33a9.92,9.92,0,0,0-9.89,9.89V39.54a9.92,9.92,0,0,0,9.89,9.89h4.94V61.79a2.47,2.47,0,0,0,4.2,1.78l14.48-14.13h25.81A9.92,9.92,0,0,0,344.64,39.54Zm-36.71,4.94a2.47,2.47,0,0,0-1.72.7l-3.38,3.3-7.63,7.44V47a2.47,2.47,0,0,0-2.47-2.47h-7.41a4.88,4.88,0,0,1-4.94-4.94V9.89a4.88,4.88,0,0,1,4.94-4.94h49.43a4.88,4.88,0,0,1,4.94,4.94V39.54a4.88,4.88,0,0,1-4.94,4.94Z"/><circle cx="310.04" cy="24.72" r="2.47"/><circle cx="300.15" cy="24.72" r="2.47"/><circle cx="319.93" cy="24.72" r="2.47"/><path d="M227.33,165.21h-2.94l.64-3.08a2.46,2.46,0,0,0-1.9-2.9,2.5,2.5,0,0,0-.5-.05,2.47,2.47,0,0,0-2.4,2l-.85,4.08h-5.46l.65-3.12a2.46,2.46,0,0,0-2.41-3,2.46,2.46,0,0,0-2.4,2l-.86,4.12h-5.1a2.45,2.45,0,1,0,0,4.91h4.07L206.23,178H202a2.45,2.45,0,1,0,0,4.91h3.24l-.81,3.9a2.46,2.46,0,0,0,1.9,2.9,2.5,2.5,0,0,0,.5.05,2.46,2.46,0,0,0,2.4-2l1-4.9h5.46l-.82,3.93a2.46,2.46,0,0,0,4.81,1l1-4.93h4.8a2.46,2.46,0,0,0,0-4.91h-3.77l1.64-7.88h4a2.46,2.46,0,0,0,0-4.91ZM216.71,178h-5.46l1.64-7.88h5.46Z"/><path d="M259.35,30.28h-89.4a9.83,9.83,0,0,0-9.8,9.8V234.32a9.83,9.83,0,0,0,9.8,9.8h89.4a9.83,9.83,0,0,0,9.8-9.8V40.08A9.83,9.83,0,0,0,259.35,30.28ZM202,40.82h25.23a3.5,3.5,0,0,1,3.43,3.43,3.35,3.35,0,0,1-3.43,3.43H202a3.43,3.43,0,0,1,0-6.86Zm12.74,194a7.1,7.1,0,1,1,7.1-7.1A7.11,7.11,0,0,1,214.77,234.81Zm46.54-24.25H168V57.72h93.32Z"/><path d="M212.32,140.92l2,1.22,2-1.22c1.22-.73,32.58-21.06,32.58-40.66,0-9.55-4.65-17.15-12.49-20.33C229,77,220.65,78.46,214,84.09c-7.59-5.39-16.17-6.86-23-3.67A17.82,17.82,0,0,0,182.69,88a24.81,24.81,0,0,0-2.94,12.49C179.5,119.85,210.85,139.94,212.32,140.92ZM193.71,86.54a11,11,0,0,1,4.9-1c4.16,0,8.82,2,13.23,5.63l2.45,2.2,2.2-2.45c5.14-5.14,11.51-6.86,17.15-4.65,5.14,2.2,8.08,7.1,8.08,13.72,0,12.25-18.37,27.43-27.68,33.56C205,127.44,186.6,112.5,186.6,100,186.6,93.64,189.3,88.5,193.71,86.54Z"/><path d="M31.43,181.26A2.22,2.22,0,0,0,28.88,183a38.36,38.36,0,0,0-.58,6.49c0,.8,0,1.6.07,2.41a2.17,2.17,0,0,0,2.19,2c.07,0,.07,0,.15.07a2.15,2.15,0,0,0,2-2.33,19.8,19.8,0,0,1-.07-2.12,30.24,30.24,0,0,1,.51-5.76A2.22,2.22,0,0,0,31.43,181.26Z"/><path d="M67.76,157.92a2.2,2.2,0,1,0,.44-4.38,31.81,31.81,0,0,0-3.72-.22A36.39,36.39,0,0,0,31.8,174a2.19,2.19,0,0,0,1,2.92,2.25,2.25,0,0,0,.95.22,2.36,2.36,0,0,0,2-1.17,32,32,0,0,1,28.74-18.16C65.57,157.78,66.66,157.85,67.76,157.92Z"/><path class="cls-2" d="M67.9,177a17.8,17.8,0,1,0,17.8,17.8A17.77,17.77,0,0,0,67.9,177Zm10.87,15.54L66.88,204.45a2,2,0,0,1-1.53.66,2.1,2.1,0,0,1-1.53-.66l-5.62-5.62a2.17,2.17,0,1,1,3.06-3.06l4.08,4.08,10.28-10.28a2.27,2.27,0,0,1,3.14-.07A2.11,2.11,0,0,1,78.77,192.57Z"/><path d="M152.07,165.58l-12.54,12.11a5.67,5.67,0,0,0-1.17-.15,1.61,1.61,0,0,0-.58.07l-1.9-2.41a4.71,4.71,0,0,0,.29-1.46,4.31,4.31,0,0,0-4.3-4.3,4.26,4.26,0,0,0-4.3,4.3,5.63,5.63,0,0,0,.15,1.09l-4.23,4.23a2.11,2.11,0,0,0,0,3.06,2.12,2.12,0,0,0,3.06,0l4.23-4.23a5.63,5.63,0,0,0,1.09.15,2,2,0,0,0,.66-.07l1.82,2.33a4.77,4.77,0,0,0-.29,1.53,4.31,4.31,0,0,0,4.3,4.3,4.26,4.26,0,0,0,4.3-4.3,3.7,3.7,0,0,0-.15-.95l12.54-12.11a2.14,2.14,0,0,0,.07-3.14A2.18,2.18,0,0,0,152.07,165.58Z"/><path d="M64.62,145.74a44.64,44.64,0,1,0,44.64,44.64A44.68,44.68,0,0,0,64.62,145.74Zm0,85a40.26,40.26,0,1,1,40.26-40.26A40.29,40.29,0,0,1,64.62,230.71Z"/><path d="M88.62,165.58l-9,10.43a21.84,21.84,0,0,0-11.67-3.35A22.15,22.15,0,0,0,53,211.24l-5.69,7.44a2.14,2.14,0,0,0,.44,3.06,2.19,2.19,0,0,0,3.06-.44l5.69-7.44A21.91,21.91,0,0,0,67.83,217,22.14,22.14,0,0,0,83,178.71l8.9-10.28a2.17,2.17,0,0,0-3.28-2.84ZM85.7,194.83A17.8,17.8,0,1,1,67.9,177,17.82,17.82,0,0,1,85.7,194.83Z"/><path class="cls-3" d="M75.63,189.58,65.35,199.86l-4.08-4.08a2.17,2.17,0,1,0-3.06,3.06l5.62,5.62a2.1,2.1,0,0,0,1.53.66,2,2,0,0,0,1.53-.66l11.89-11.89a2.11,2.11,0,0,0,0-3.06A2.27,2.27,0,0,0,75.63,189.58Z"/><path d="M49.16,246.83a2.2,2.2,0,0,0-3.06.44L31,267.76a4.3,4.3,0,0,0-1,.15l-3.65-3.65a5.63,5.63,0,0,0,.15-1.09,4.31,4.31,0,0,0-4.3-4.3,4.26,4.26,0,0,0-4.3,4.3,5.67,5.67,0,0,0,.15,1.17l-5.47,5.83a8,8,0,0,0-4.16-1.09,8.39,8.39,0,1,0,8.39,8.39,7.91,7.91,0,0,0-1.17-4.16l5.54-5.91a3.85,3.85,0,0,0,.95.07,5.63,5.63,0,0,0,1.09-.15L26.84,271a5.63,5.63,0,0,0-.15,1.09,4.31,4.31,0,0,0,4.3,4.3,4.26,4.26,0,0,0,4.3-4.3,4.7,4.7,0,0,0-.51-2L49.6,250A2.28,2.28,0,0,0,49.16,246.83ZM8.46,281.47a4,4,0,1,1,4-4A4,4,0,0,1,8.46,281.47Z"/><path d="M110.86,221.38a54.9,54.9,0,0,0,9.41-30.92,55.7,55.7,0,1,0-24.72,46.17l10.87,10.87,30.85,30.85a10.8,10.8,0,1,0,15.32-15.24ZM64.62,241.72a51.27,51.27,0,1,1,51.27-51.27A51.34,51.34,0,0,1,64.62,241.72Zm34.57-7.66a59.86,59.86,0,0,0,9.12-9.12l3.57,3.57-9.12,9.12Zm6.64,6.64,9.12-9.12,2.19,2.19L108,242.89Zm43.69,34.57a6.52,6.52,0,0,1-9.12,0L111.08,246l9.12-9.12,29.32,29.32A6.52,6.52,0,0,1,149.52,275.27Z"/><path class="cls-4" d="M214,133.57c9.31-6.12,27.68-21.31,27.68-33.56,0-6.61-2.94-11.51-8.08-13.72-5.63-2.2-12-.49-17.15,4.65l-2.2,2.45-2.45-2.2c-4.41-3.67-9.06-5.63-13.23-5.63a11,11,0,0,0-4.9,1c-4.41,2-7.1,7.1-7.1,13.47C186.6,112.5,205,127.44,214,133.57Z"/></g></g></svg>