<svg xmlns="http://www.w3.org/2000/svg" viewBox="0 0 152.29 212.3"><defs><style>.cls-1{fill:#3ebff7;}</style></defs><title>influencers</title><g id="Layer_2" data-name="Layer 2"><g id="Layer_1-2" data-name="Layer 1"><path d="M57.54,44.07a29.5,29.5,0,1,0,0-.07ZM.08,105.59,3.9,139.34a11.19,11.19,0,0,0,7.28,9.24l6.52,59.15a5.11,5.11,0,0,0,5.09,4.54H33a5.11,5.11,0,0,0,5.09-4.54l6.52-59.07a11.21,11.21,0,0,0,4.06-2.5l-.48-4.35A21.91,21.91,0,0,1,39,126.3l-3.69-32.6-6.08,7.61a1.61,1.61,0,0,1-2.5,0L18.7,91.23a.65.65,0,0,0-.5-.24H13.12a13.17,13.17,0,0,0-13,14.6Zm12.3-35.73A15.58,15.58,0,0,0,28,85.45a15.41,15.41,0,0,0,6.24-1.33,23.9,23.9,0,0,1,8.45-19.41,15.56,15.56,0,0,0-30.27,5.15ZM139.16,90.93H134.1a.65.65,0,0,0-.5.24l-8.06,10.08a1.61,1.61,0,0,1-2.5,0l-5.89-7.35-3.67,32.34A22.12,22.12,0,0,1,104,141.93l-.43,4a11.15,11.15,0,0,0,4.06,2.67l6.52,59.15a5.11,5.11,0,0,0,5.09,4.54h10.15a5.11,5.11,0,0,0,5.09-4.54L141,148.69a11.17,11.17,0,0,0,7.54-9.32l3.67-33.77a13.17,13.17,0,0,0-13-14.67ZM124.38,54.31a15.56,15.56,0,0,0-14.69,10.43,23.9,23.9,0,0,1,8.45,19.41,15.41,15.41,0,0,0,6.24,1.33,15.58,15.58,0,1,0,0-31.16Zm-19.56,71L109.39,85A15.71,15.71,0,0,0,93.76,67.59h-6a.78.78,0,0,0-.61.28l-9.63,12a1.91,1.91,0,0,1-3,0l-9.63-12a.76.76,0,0,0-.61-.28H58.49A15.71,15.71,0,0,0,42.87,85l4.59,40.29a13.36,13.36,0,0,0,8.69,11l7.69,70.58a6.11,6.11,0,0,0,6.06,5.41H82.12a6.11,6.11,0,0,0,6.06-5.41l7.69-70.5A13.34,13.34,0,0,0,104.83,125.26Z"/><path class="cls-1" d="M76.14,17a4.35,4.35,0,0,1-4.35-4.35V4.35a4.35,4.35,0,1,1,8.69,0v8.34A4.35,4.35,0,0,1,76.14,17Z"/><path class="cls-1" d="M32.68,43.38A4.35,4.35,0,0,0,37,47.72h8.45a4.35,4.35,0,0,0,0-8.69H37A4.35,4.35,0,0,0,32.68,43.38Z"/><path class="cls-1" d="M115.13,39h-8.39a4.35,4.35,0,1,0,0,8.69h8.52a4.34,4.34,0,0,0,4.35-4.28,4.06,4.06,0,0,0-1.11-3A4.35,4.35,0,0,0,115.26,39Z"/><path class="cls-1" d="M103.8,11.34a4.35,4.35,0,0,0-3.13,1.35l-6,5.91a4.35,4.35,0,0,0-.14,6.15l.14.14a4.85,4.85,0,0,0,3.09,1.22,4.35,4.35,0,0,0,3.06-1.28l6-6a4.35,4.35,0,0,0-3.11-7.5Z"/><path class="cls-1" d="M51.5,12.69a4.37,4.37,0,1,0-6.22,6.15h0l6.06,6a4.37,4.37,0,1,0,6.13-6.24Z"/></g></g></svg>