<svg xmlns="http://www.w3.org/2000/svg" viewBox="0 0 113.29 86.49"><defs><style>.cls-1{fill:#191919;}</style></defs><title>large-audience</title><g id="Layer_2" data-name="Layer 2"><g id="Layer_1-2" data-name="Layer 1"><path class="cls-1" d="M41,86.49H72.31a1.83,1.83,0,0,0,1.83-1.83V72.92a1.82,1.82,0,0,0-.53-1.29c-4.07-4.07-10.25-6.41-17-6.41s-12.88,2.33-17,6.41a1.82,1.82,0,0,0-.53,1.29V84.67A1.83,1.83,0,0,0,41,86.49ZM42.81,73.7a20.62,20.62,0,0,1,13.84-4.83A20.62,20.62,0,0,1,70.48,73.7v9.14H42.81Z"/><path class="cls-1" d="M45.81,53.34A10.83,10.83,0,1,0,56.65,42.51,10.85,10.85,0,0,0,45.81,53.34Zm18,0a7.18,7.18,0,1,1-7.18-7.18A7.19,7.19,0,0,1,63.82,53.34Z"/><path class="cls-1" d="M95.8,65.22c-6.7,0-12.88,2.33-17,6.41a1.82,1.82,0,0,0-.54,1.29V84.67a1.83,1.83,0,0,0,1.83,1.83h31.32a1.83,1.83,0,0,0,1.83-1.83V72.92a1.82,1.82,0,0,0-.53-1.29C108.68,67.56,102.5,65.22,95.8,65.22Zm13.84,17.62H82V73.7A20.61,20.61,0,0,1,95.8,68.87a20.61,20.61,0,0,1,13.83,4.83v9.14Z"/><path class="cls-1" d="M95.8,64.18A10.83,10.83,0,1,0,85,53.34,10.84,10.84,0,0,0,95.8,64.18Zm0-18a7.18,7.18,0,1,1-7.18,7.18A7.19,7.19,0,0,1,95.8,46.16Z"/><path class="cls-1" d="M1.83,86.49H33.15A1.83,1.83,0,0,0,35,84.67V72.92a1.82,1.82,0,0,0-.54-1.29c-4.07-4.07-10.25-6.41-17-6.41S4.61,67.55.53,71.63A1.83,1.83,0,0,0,0,72.92V84.67A1.83,1.83,0,0,0,1.83,86.49ZM3.65,73.7a20.61,20.61,0,0,1,13.83-4.83A20.61,20.61,0,0,1,31.32,73.7v9.14H3.65Z"/><path class="cls-1" d="M17.49,42.51A10.83,10.83,0,1,0,28.32,53.34,10.84,10.84,0,0,0,17.49,42.51Zm0,18a7.18,7.18,0,1,1,7.18-7.18A7.19,7.19,0,0,1,17.49,60.52Z"/><path class="cls-1" d="M44.87,49,46.1,45.6A28.07,28.07,0,0,0,28,45.6L29.26,49A24.32,24.32,0,0,1,44.87,49Z"/><path class="cls-1" d="M37.07,21.36A10.83,10.83,0,1,0,47.9,32.2,10.85,10.85,0,0,0,37.07,21.36Zm0,18a7.18,7.18,0,1,1,7.18-7.18A7.19,7.19,0,0,1,37.07,39.38Z"/><path class="cls-1" d="M84,49l1.23-3.44a28.07,28.07,0,0,0-18.06,0L68.42,49A24.33,24.33,0,0,1,84,49Z"/><path class="cls-1" d="M65.39,32.2A10.83,10.83,0,1,0,76.22,21.37,10.84,10.84,0,0,0,65.39,32.2ZM76.22,25A7.18,7.18,0,1,1,69,32.2,7.19,7.19,0,0,1,76.22,25Z"/><path class="cls-1" d="M47.62,24.23l1.22,3.44a24.36,24.36,0,0,1,15.61,0l1.22-3.44A28,28,0,0,0,47.62,24.23Z"/><path class="cls-1" d="M56.65,0A10.83,10.83,0,1,0,67.48,10.83,10.84,10.84,0,0,0,56.65,0Zm0,18a7.18,7.18,0,1,1,7.18-7.18A7.19,7.19,0,0,1,56.65,18Z"/></g></g></svg>