<svg xmlns="http://www.w3.org/2000/svg" viewBox="0 0 511.44 200.43"><defs><style>.cls-1{fill:#0068ff;}</style></defs><title>locate-people</title><g id="Layer_2" data-name="Layer 2"><g id="Layer_1-2" data-name="Layer 1"><path d="M325,74.24a78.54,78.54,0,0,1,10.18,34.24,1,1,0,0,1-1,1.06H306.73a1,1,0,0,1-1-1c-.07-2-.17-4-.31-6a8,8,0,0,1-7.57.15c.17,2.12.28,4,.33,5.76a1,1,0,0,1-1,1h-36.7a1,1,0,0,1-1-1V80.94a1,1,0,0,1,1-1c6.85-.12,13.71-.5,20.44-1.13-1.8-2.81-3.27-5.13-4.54-7.19-5.56.44-10.75.7-15.86.79h0a1,1,0,0,1-1-1V35.27a1,1,0,0,1,1-1l.22,0a24.3,24.3,0,0,1,4.79,1.65A35.9,35.9,0,0,1,267.69,27,87.2,87.2,0,1,0,329.44,67C328.22,69,326.78,71.41,325,74.24ZM194,63.07a80,80,0,0,1,32.4-23.76,1,1,0,0,1,1.13,1.58c-6,7-11.12,16.36-14.81,27.1a1,1,0,0,1-.95.68l-.18,0c-5.87-1.08-11.62-2.42-17.1-4a1,1,0,0,1-.5-1.59Zm-5.93,8.29a1,1,0,0,1,1.14-.43,190.15,190.15,0,0,0,20,4.92,1,1,0,0,1,.78,1.23,142.65,142.65,0,0,0-4.33,31.49,1,1,0,0,1-1,1H177.27a1,1,0,0,1-1-1.06A79.79,79.79,0,0,1,188.11,71.36Zm.85,84.37a1,1,0,0,1-.85-.47,79.78,79.78,0,0,1-11.83-37.13,1,1,0,0,1,1-1.06h27.44a1,1,0,0,1,1,1A142.67,142.67,0,0,0,210,149.52a1,1,0,0,1-.78,1.23,189.56,189.56,0,0,0-20,4.93A1,1,0,0,1,189,155.73Zm38.66,31.21a1,1,0,0,1-1.18.35A79.92,79.92,0,0,1,194,163.53a1,1,0,0,1,.5-1.59c5.59-1.58,11.35-2.92,17.1-4l.18,0a1,1,0,0,1,.94.67c3.69,10.73,8.81,20.09,14.81,27.08A1,1,0,0,1,227.62,186.94ZM252,191.35a1,1,0,0,1-1,1l-.22,0c-12.08-2.77-23.06-15.37-30.11-34.58a1,1,0,0,1,.8-1.34,248.38,248.38,0,0,1,29.52-2.21h0a1,1,0,0,1,1,1Zm0-45.67a1,1,0,0,1-1,1,253.39,253.39,0,0,0-32.18,2.48h-.14a1,1,0,0,1-1-.74,134.2,134.2,0,0,1-4.43-30.33,1,1,0,0,1,1-1H251a1,1,0,0,1,1,1Zm0-37.14a1,1,0,0,1-1,1h-36.7a1,1,0,0,1-1-1,134.05,134.05,0,0,1,4.43-30.33,1,1,0,0,1,1-.74h.14A257,257,0,0,0,251,79.94a1,1,0,0,1,1,1Zm0-37.13a1,1,0,0,1-1,1h0a251.5,251.5,0,0,1-29.51-2.22,1,1,0,0,1-.8-1.34c7.06-19.22,18-31.82,30.11-34.57l.22,0a1,1,0,0,1,1,1Zm7.52,46.65a1,1,0,0,1,1-1h36.7a1,1,0,0,1,1,1,134.23,134.23,0,0,1-4.43,30.33,1,1,0,0,1-1,.74h-.14a252.6,252.6,0,0,0-32.17-2.48,1,1,0,0,1-1-1Zm1.22,74.26-.22,0a1,1,0,0,1-1-1V155.2a1,1,0,0,1,1-1h0A248.49,248.49,0,0,1,290,156.41a1,1,0,0,1,.8,1.34C283.76,177,272.79,189.56,260.71,192.32Zm56.7-28.8A79.92,79.92,0,0,1,285,187.29a1,1,0,0,1-1.13-1.58c6-7,11.11-16.35,14.81-27.08a1,1,0,0,1,.94-.67l.18,0c5.69,1,11.44,2.37,17.1,4a1,1,0,0,1,.5,1.59Zm5.93-8.27a1,1,0,0,1-1.14.43,190,190,0,0,0-20-4.93,1,1,0,0,1-.78-1.23A145.14,145.14,0,0,0,305.73,118a1,1,0,0,1,1-1h27.45a1,1,0,0,1,1,1.06A79.86,79.86,0,0,1,323.34,155.26Z"/><path class="cls-1" d="M302.53,95.83c22.8-35.24,28.11-41.6,28.11-55.66a29.14,29.14,0,0,0-58.28,0c0,14.06,5.31,20.42,28.11,55.66A1.14,1.14,0,0,0,302.53,95.83ZM288.67,40.17A12.82,12.82,0,1,1,301.5,53,12.82,12.82,0,0,1,288.67,40.17Z"/><path class="cls-1" d="M354.88,34.55a34.33,34.33,0,0,0,9.44,23.69c-.53,2.67-4.1,10-7.48,15.67l-1.6,2.67,2.67,1.6a7.53,7.53,0,0,0,3.56.89c3.92,0,9.44-2.14,16.92-5.52,4.1-1.78,9.44-4.1,11.22-4.1h87.1a34.73,34.73,0,0,0,0-69.46h-87.1A34.63,34.63,0,0,0,354.88,34.55ZM369.13,55a28.29,28.29,0,0,1-8.37-20.13,28.58,28.58,0,0,1,28.5-28.5h87.1a28.5,28.5,0,0,1,0,57H428.08c-.71-7.12-4.1-12.65-10.15-15.85-3-1.6-6.41-.53-9.26.53a19.38,19.38,0,0,1-5.34,1.25A15.45,15.45,0,0,1,398,48.09c-2.85-1.07-6.06-2.32-9.26-.53-6.95,3.74-10.33,12.29-10,19.06-.89.36-2,.71-3,1.25-2.85,1.25-7.48,3.21-10.87,4.27C372.51,57.89,370.73,56.11,369.13,55Z"/><path class="cls-1" d="M435.39,25.29h51.83c4.1,0,4.1-6.23,0-6.23H435.39C431.47,19.06,431.47,25.29,435.39,25.29Z"/><path class="cls-1" d="M435.39,39.36h51.83c4.1,0,4.1-6.23,0-6.23H435.39C431.47,33.13,431.47,39.36,435.39,39.36Z"/><path class="cls-1" d="M435.39,53.26H476c4.1,0,4.1-6.23,0-6.23H435.39C431.47,47,431.47,53.26,435.39,53.26Z"/><path class="cls-1" d="M388.9,27.43A14.43,14.43,0,1,0,403.32,13,14.37,14.37,0,0,0,388.9,27.43Z"/><path class="cls-1" d="M0,34.91A34.78,34.78,0,0,0,34.73,69.64h87.1c1.78,0,6.95,2.32,11.22,4.1,7.48,3.21,13,5.52,16.92,5.52a7.53,7.53,0,0,0,3.56-.89l2.67-1.6-1.6-2.67c-3.38-5.88-6.95-13-7.48-15.67a34.33,34.33,0,0,0,9.44-23.69A34.78,34.78,0,0,0,121.83,0H34.73A34.82,34.82,0,0,0,0,34.91Zm6.23-.36a28.58,28.58,0,0,1,28.5-28.5h87.1a28.58,28.58,0,0,1,28.5,28.5A28.29,28.29,0,0,1,142,54.68c-1.42,1.25-3.21,3.21,4.45,17.46-3.38-1.25-8-3.21-10.87-4.45-1.07-.36-2.14-.89-3-1.25.36-6.77-3-15.32-10-19.06-3.21-1.6-6.59-.53-9.44.53a19.38,19.38,0,0,1-5.34,1.25,14.59,14.59,0,0,1-5.34-1.25c-2.85-1.07-6.06-2.32-9.26-.53C87.1,50.76,83.71,56.11,83,63.23H34.73A28.62,28.62,0,0,1,6.23,34.55Z"/><path class="cls-1" d="M24,25.29H75.88c4.1,0,4.1-6.23,0-6.23H24C20.13,19.06,20.13,25.29,24,25.29Z"/><path class="cls-1" d="M24,39.36H75.88c4.1,0,4.1-6.23,0-6.23H24C20.13,33.13,20.13,39.36,24,39.36Z"/><path class="cls-1" d="M35.09,53.26H75.7c4.1,0,4.1-6.23,0-6.23H35.09C31.17,47,31.17,53.26,35.09,53.26Z"/><path class="cls-1" d="M93.51,27.43A14.43,14.43,0,1,0,107.94,13,14.37,14.37,0,0,0,93.51,27.43Z"/></g></g></svg>