<svg xmlns="http://www.w3.org/2000/svg" viewBox="0 0 144.76 101.78"><defs><style>.cls-1{fill:none;}.cls-2{fill:#0068ff;}</style></defs><title>manage-brand</title><g id="Layer_2" data-name="Layer 2"><g id="Layer_1-2" data-name="Layer 1"><path d="M19.71,68V66.89H12.12v5.33a5.45,5.45,0,0,0,5.49,5.49H59.13c0,.16-.16.48-.16.65,0,3.07-2.91,8.08-6.3,11.31L48,94c-3.55,3.23-2.58,5.82,1.94,5.82H87.73c4.52,0,5.49-2.58,1.94-5.82L85,89.67c-3.55-3.23-6.3-8.24-6.3-11.31a1,1,0,0,0-.16-.65H93.71V67.86h-74Zm53,4.85h0Zm-5.33,0h0Z"/><path d="M19.71,9.86h96.78V33.12l7.59-3.39V5.49A5.45,5.45,0,0,0,118.59,0h-101a5.45,5.45,0,0,0-5.49,5.49v5.17h7.59Z"/><line class="cls-1" x1="70.6" y1="72.86" x2="72.7" y2="72.86"/><line class="cls-1" x1="65.43" y1="72.86" x2="67.37" y2="72.86"/><polygon class="cls-2" points="71.09 31.83 65.76 15.35 60.42 31.83 43.14 31.83 57.03 42.01 51.7 58.49 65.76 48.31 79.81 58.49 74.48 42.01 88.54 31.83 71.09 31.83"/><path d="M28.92,58.65V18.9a4.9,4.9,0,0,0-5-4.85H5A5,5,0,0,0,0,18.9V58.65a4.9,4.9,0,0,0,5,4.85H24.07A5,5,0,0,0,28.92,58.65ZM14.54,59.78A2.42,2.42,0,1,1,17,57.35,2.38,2.38,0,0,1,14.54,59.78ZM4,52.51v-31H24.88v31Z"/><polygon class="cls-2" points="22.13 32.47 16.32 32.47 14.54 26.98 12.76 32.47 6.79 32.47 11.63 36.03 9.69 41.52 14.54 38.13 19.23 41.52 17.45 36.03 22.13 32.47"/><path d="M142,44.27h-.81V38.94a2.61,2.61,0,0,0-1-2.1,2.9,2.9,0,0,0-2.26-.65l-1.45.32-2.91.65V33a2.58,2.58,0,0,0-1.29-2.26,2.49,2.49,0,0,0-2.58-.16L98.55,44.27a.16.16,0,0,0-.16.16c-.16,0-.16.16-.32.16-.16.16-.32.16-.48.32a.56.56,0,0,0-.16.32c-.16.16-.16.32-.32.48,0,.16-.16.16-.16.32a1.76,1.76,0,0,0-.16.81V99a2.72,2.72,0,0,0,2.75,2.75H142A2.83,2.83,0,0,0,144.76,99V47A2.83,2.83,0,0,0,142,44.27ZM102.43,96.13V49.92h36.84V96.29H102.43Zm25.53-58-4,.81,4-1.78Zm7.59,6.14H125.7l9.86-1.94Z"/><polygon class="cls-2" points="116.16 74 113.42 82.72 120.85 77.39 128.28 82.72 125.37 74 132.8 68.66 123.59 68.66 120.85 59.94 117.94 68.66 108.73 68.66 116.16 74"/></g></g></svg>