<svg xmlns="http://www.w3.org/2000/svg" viewBox="0 0 120.24 123.76"><defs><style>.cls-1{fill:#3ebff7;}</style></defs><title>megaphone-hashtag</title><g id="Layer_2" data-name="Layer 2"><g id="Layer_1-2" data-name="Layer 1"><path d="M39.35,91.21l1.14.16c9.32,1.31,15.07,4.76,28.32,13.14l.23.15.12.25c2.12,4.17,4.61,6.47,7,6.47,6.15,0,12.73-15,12.73-37.27S82.36,36.82,76.25,36.82c-2.84,0-5.13,3-6.54,5.6l-.12.22-.21.14C55.85,51.48,49.85,54.9,40.51,56.22l-1,.14-.12-1a2.83,2.83,0,0,0-2.82-2.52H14.34A8.37,8.37,0,0,0,6,61.19v5.18H2.13A2.14,2.14,0,0,0,0,68.51V80.24a2.14,2.14,0,0,0,2.13,2.13H6V87a8.37,8.37,0,0,0,8.36,8.36h3L27,121a3.82,3.82,0,0,0,7.47-1.52L30.59,95.31h5.87a2.91,2.91,0,0,0,2.9-2.87ZM71.27,64.8a60.38,60.38,0,0,1,4-17.43l.89-2.24,1,2.21c1,2.4,4.44,11.41,4.44,26.76,0,15-3.4,24.27-4.44,26.74l-1,2.26-.9-2.29a60.42,60.42,0,0,1-4-17.44l-.06-.79.75-.24c2.57-.82,4.51-4.37,4.51-8.26S74.61,66.7,72,65.83l-.75-.25Z"/><path d="M15.33,19.18a3.7,3.7,0,0,0,4.5,2.65l4.47-1.16,2.56,10L22.4,31.78a3.7,3.7,0,1,0,1.86,7.16l4.46-1.16,1.16,4.41a3.71,3.71,0,0,0,4.39,2.9,3.69,3.69,0,0,0,2.85-4.38c0-.1,0-.19-.07-.28l-1.17-4.49,9.89-2.56,1.16,4.46A3.7,3.7,0,1,0,54.1,36l-1.16-4.46,4.46-1.16a3.7,3.7,0,1,0-1.86-7.16l-4.46,1.16-2.56-9.87L53,13.24a3.7,3.7,0,1,0-1.84-7.16L46.65,7.23,45.49,2.77a3.7,3.7,0,1,0-7.16,1.85l1.16,4.46-9.88,2.58L28.45,7.13A3.7,3.7,0,0,0,21.29,9l1.17,4.52L18,14.67a3.7,3.7,0,0,0-2.68,4.49l-1,.27Zm26-2.92,2.56,9.89L34,28.71l-2.56-9.89Z"/><path class="cls-1" d="M101,70.26H116.4a3.84,3.84,0,1,1,0,7.67H101a3.84,3.84,0,0,1,0-7.67Z"/><path class="cls-1" d="M117.18,54.11A3.84,3.84,0,0,1,115,58.78l-14.7,5.83a3.84,3.84,0,0,1-2.79-7l14.7-5.83a3.84,3.84,0,0,1,5,2.22Z"/><path class="cls-1" d="M95.27,85.95a3.84,3.84,0,0,1,4.89-2.36l.11,0L115,89.46a3.84,3.84,0,1,1-2.8,7L97.48,90.62A3.84,3.84,0,0,1,95.27,85.95Z"/></g></g></svg>