<svg xmlns="http://www.w3.org/2000/svg" viewBox="0 0 307.54 179.42"><defs><style>.cls-1{fill:red;}</style></defs><title>people-heart</title><g id="Layer_2" data-name="Layer 2"><g id="Layer_1-2" data-name="Layer 1"><path class="cls-1" d="M152.63,39.56l.21,1.12a2.34,2.34,0,0,0,4.56,0l.33-1.12a2.34,2.34,0,0,0-1.68-2.85h0a6.55,6.55,0,0,0-1.71,0,2.34,2.34,0,0,0-1.71,2.83Z"/><path class="cls-1" d="M132.45,11.88l1.82,1.22A2.38,2.38,0,0,0,137,9.17l-2-1.33a2.38,2.38,0,1,0-2.5,4Z"/><path class="cls-1" d="M59.31,59.84a2.34,2.34,0,0,0,2.08-2.57h0A13.49,13.49,0,0,0,61.21,55a2.34,2.34,0,0,0-4.68.33,12.92,12.92,0,0,0,.21,2.34,2.34,2.34,0,0,0,2.34,2.1h.23Z"/><path class="cls-1" d="M119.38,144.23a2.34,2.34,0,0,0-3.11,3.51l1.75,1.54a2.34,2.34,0,0,0,3.06-3.53Z"/><path class="cls-1" d="M65.56,74.64q-.4-1.05-.75-2.13A2.34,2.34,0,1,0,60.39,74q.37,1.12.8,2.34a2.35,2.35,0,0,0,4.37-1.71Z"/><path class="cls-1" d="M61.21,68.84A2.34,2.34,0,0,0,62.91,66q-.26-1.1-.49-2.17a2.39,2.39,0,1,0-4.68,1c.16.77.35,1.54.54,2.34a2.34,2.34,0,0,0,2.34,1.78Z"/><path class="cls-1" d="M59.64,41.48a2.34,2.34,0,0,0,2.85-1.68h0c.19-.7.37-1.43.58-2.1a2.34,2.34,0,1,0-4.47-1.36q-.35,1.15-.65,2.34A2.34,2.34,0,0,0,59.64,41.48Z"/><path class="cls-1" d="M141,18.8a2.34,2.34,0,1,0,3.37-3.25q-.84-.89-1.73-1.71a2.34,2.34,0,0,0-3.2,3.41Q140.19,18,141,18.8Z"/><path class="cls-1" d="M140.66,161.69a2.34,2.34,0,1,0-3,3.59l.16.13,1.85,1.4a2.34,2.34,0,0,0,2.81-3.74h0Z"/><path class="cls-1" d="M124.64,7.9l2,.87a2.35,2.35,0,1,0,1.94-4.28h0l-2.34-.94a2.34,2.34,0,0,0-1.61,4.35Z"/><path class="cls-1" d="M62.31,32.55a2.34,2.34,0,0,0,3.11-1.12c.3-.65.63-1.33,1-2a2.34,2.34,0,0,0-4.14-2.17q-.56,1.05-1.08,2.15A2.34,2.34,0,0,0,62.31,32.55Z"/><path class="cls-1" d="M148,167.19a2.34,2.34,0,0,0-2.74,3.79l1.89,1.36a2.34,2.34,0,0,0,2.71-3.81h0Z"/><path class="cls-1" d="M58.68,50.65h.14a2.34,2.34,0,0,0,2.34-2.2,8.74,8.74,0,0,1,.19-2.2,2.32,2.32,0,1,0-4.61-.49h0q-.12,1.19-.19,2.34a2.34,2.34,0,0,0,2.11,2.55Z"/><path class="cls-1" d="M107.6,4.68h2.1a2.34,2.34,0,0,0,0-4.68h-2.34a2.34,2.34,0,0,0,0,4.69Z"/><path class="cls-1" d="M116.23,5.47l2.15.44h.54a2.35,2.35,0,0,0,.54-4.68L117.12.72a2.41,2.41,0,0,0-.89,4.75Z"/><path class="cls-1" d="M98.34,5.54h.44L101,5.17a2.36,2.36,0,1,0-.68-4.68l-2.34.4a2.34,2.34,0,0,0,.4,4.65Z"/><path class="cls-1" d="M81.29,12.35A2.34,2.34,0,0,0,82.56,12l1.87-1.15a2.34,2.34,0,0,0-2.17-4.14l-.17.1L80,8a2.34,2.34,0,0,0,1.26,4.3Z"/><path class="cls-1" d="M133.41,156.06a2.34,2.34,0,0,0-2.92,3.65l1.82,1.45a2.34,2.34,0,0,0,2.9-3.67Z"/><path class="cls-1" d="M126.33,150.24a2.34,2.34,0,1,0-3,3.58h0l1.78,1.5a2.34,2.34,0,1,0,3-3.51Z"/><path class="cls-1" d="M68,24.95a2.34,2.34,0,0,0,1.89-1q.65-.89,1.33-1.75a2.34,2.34,0,0,0-3.65-2.92c-.49.63-1,1.26-1.45,1.92A2.34,2.34,0,0,0,68,24.95Z"/><path class="cls-1" d="M149.66,31.38c.3.65.61,1.33.89,2a2.34,2.34,0,0,0,4.33-1.78h0q-.47-1.12-1-2.22a2.34,2.34,0,0,0-4.23,2Z"/><path class="cls-1" d="M74,18a2.34,2.34,0,0,0,1.64-.65l1.64-1.47a2.34,2.34,0,1,0-3-3.55h0q-.91.8-1.8,1.61A2.34,2.34,0,0,0,74,18Z"/><path class="cls-1" d="M145.2,23.83q.63.89,1.24,1.71a2.34,2.34,0,0,0,3.9-2.57c-.44-.68-.91-1.33-1.38-2a2.36,2.36,0,0,0-3.76,2.85Z"/><path class="cls-1" d="M89.5,8.14A2.34,2.34,0,0,0,90.37,8l2.06-.77a2.34,2.34,0,0,0-1.36-4.48l-.16.06-2.34.84a2.34,2.34,0,0,0,.94,4.51Z"/><path class="cls-1" d="M155.18,172.24a2.35,2.35,0,0,0-2.34,4.07l1,.65a2.34,2.34,0,0,0,2.55,0l1.12-.65a2.35,2.35,0,1,0-2.34-4.07Z"/><path class="cls-1" d="M244,29.56q.51,1,1,2a2.34,2.34,0,0,0,4.23-2q-.51-1.1-1.08-2.17a2.34,2.34,0,0,0-4.14,2.2Z"/><path class="cls-1" d="M248.53,71a2.34,2.34,0,0,0-3,1.45l-.75,2.13a2.34,2.34,0,0,0,4.4,1.61q.42-1.12.8-2.34A2.34,2.34,0,0,0,248.53,71Z"/><path class="cls-1" d="M240.48,23.94a2.34,2.34,0,0,0,3.9-2.58l-.11-.16q-.7-1-1.45-1.92a2.34,2.34,0,1,0-3.74,2.81l.09.11Q239.85,23.06,240.48,23.94Z"/><path class="cls-1" d="M162.34,167.19l-1.87,1.33a2.34,2.34,0,0,0,2.71,3.81l1.89-1.36a2.34,2.34,0,0,0-2.74-3.79Z"/><path class="cls-1" d="M234.68,17.35a2.38,2.38,0,0,0,3.23-3.51q-.89-.7-1.8-1.5a2.34,2.34,0,1,0-3,3.55Z"/><path class="cls-1" d="M169.7,161.69l-1.82,1.38a2.34,2.34,0,0,0,2.81,3.74l1.85-1.4a2.34,2.34,0,1,0-2.66-3.84Z"/><path class="cls-1" d="M225.92,10.83l1.87,1.12a2.34,2.34,0,1,0,2.73-3.79L230.31,8c-.68-.44-1.36-.84-2.08-1.26a2.34,2.34,0,1,0-2.31,4.07Z"/><path class="cls-1" d="M191,144.23l-1.73,1.52a2.34,2.34,0,0,0,3,3.63l.11-.09,1.75-1.54a2.34,2.34,0,0,0-3.09-3.51Z"/><path class="cls-1" d="M247.29,37.67c.21.7.4,1.4.58,2.1a2.34,2.34,0,1,0,4.54-1.15q-.3-1.17-.65-2.34a2.34,2.34,0,0,0-4.47,1.38Z"/><path class="cls-1" d="M251.66,52.87a2.34,2.34,0,0,0-2.5,2.16h0a13.49,13.49,0,0,1-.19,2.22,2.34,2.34,0,0,0,2.08,2.57h.24a2.34,2.34,0,0,0,2.34-2.1q.12-1.19.21-2.34a2.34,2.34,0,0,0-2.14-2.52Z"/><path class="cls-1" d="M250.7,62a2.34,2.34,0,0,0-2.78,1.79h0q-.23,1.1-.49,2.17a2.34,2.34,0,0,0,1.71,2.83h.56A2.34,2.34,0,0,0,252,67.06q.28-1.15.54-2.34A2.34,2.34,0,0,0,250.7,62Z"/><path class="cls-1" d="M217.94,7.2,220,8a2.34,2.34,0,0,0,1.73-4.35l-2.34-.84a2.34,2.34,0,0,0-1.45,4.42Z"/><path class="cls-1" d="M249,46.23c0,.72.14,1.45.19,2.2a2.34,2.34,0,0,0,2.34,2.2h.14a2.34,2.34,0,0,0,2.2-2.47h0a9.58,9.58,0,0,0-.19-2.34,2.35,2.35,0,0,0-4.68.42Z"/><path class="cls-1" d="M174.73,13.54a2.34,2.34,0,0,0,1.33-.42l1.82-1.22a2.34,2.34,0,1,0-2.5-4q-1,.65-2,1.33a2.34,2.34,0,0,0,1.36,4.26Z"/><path class="cls-1" d="M184,150.24l-1.75,1.57a2.34,2.34,0,1,0,3,3.6l1.78-1.5a2.38,2.38,0,0,0-3-3.67Z"/><path class="cls-1" d="M167.72,19.52a2.34,2.34,0,0,0,1.68-.7q.77-.8,1.57-1.54a2.35,2.35,0,1,0-3.2-3.44h0q-.87.82-1.73,1.68a2.34,2.34,0,0,0,1.68,4Z"/><path class="cls-1" d="M209.41,5.14l2.17.37H212a2.35,2.35,0,1,0,.44-4.68l-2.34-.4a2.38,2.38,0,1,0-.72,4.7Z"/><path class="cls-1" d="M182.73,9a2.34,2.34,0,0,0,1-.21l2-.87A2.34,2.34,0,0,0,184,3.53l-2.34.94A2.34,2.34,0,0,0,182.73,9Z"/><path class="cls-1" d="M191.43,6H192l2.15-.47a2.38,2.38,0,0,0-.87-4.68l-2.34.49A2.34,2.34,0,1,0,191.43,6Z"/><path class="cls-1" d="M200.55,4.72h2.1a2.34,2.34,0,1,0,0-4.68h-2.34a2.34,2.34,0,1,0,.23,4.68Z"/><path class="cls-1" d="M176.93,156.06l-1.8,1.43a2.35,2.35,0,1,0,2.92,3.67l1.82-1.45a2.34,2.34,0,0,0-2.95-3.65Z"/><path class="cls-1" d="M156.75,34.65a2.34,2.34,0,0,0,3.08-1.2l0-.07q.42-1,.89-2a2.34,2.34,0,0,0-4.2-2.07l0,.08q-.51,1.1-1,2.2A2.34,2.34,0,0,0,156.75,34.65Z"/><path class="cls-1" d="M160.68,26.31a2.34,2.34,0,0,0,3.22-.76h0c.4-.61.82-1.22,1.24-1.8A2.34,2.34,0,1,0,161.36,21q-.7,1-1.38,2a2.34,2.34,0,0,0,.57,3.26Z"/><path class="cls-1" d="M154.27,63.41a2.34,2.34,0,0,0-1.64,2.87h0a5.52,5.52,0,0,0,.26,1,2.34,2.34,0,0,0,4.56,0,3.91,3.91,0,0,1,.26-1,2.34,2.34,0,0,0-1.63-2.88h0a2.34,2.34,0,0,0-.91,0A2.34,2.34,0,0,0,154.27,63.41Z"/><path class="cls-1" d="M118.92,42.91q-1.26.33-2.46.75A2.34,2.34,0,1,0,118,48.08q1-.35,2.1-.63a2.35,2.35,0,0,0-1.19-4.54Z"/><path class="cls-1" d="M109.52,47.09q-1.08.7-2.08,1.5a2.34,2.34,0,1,0,2.88,3.67q.87-.68,1.78-1.29a2.34,2.34,0,1,0-2.57-3.88Z"/><path class="cls-1" d="M97.78,77.94h.16a2.34,2.34,0,0,0,2.17-2.48q0-1.05,0-2.08v-.16a2.34,2.34,0,0,0-4.68,0v2.34a2.34,2.34,0,0,0,2.29,2.38Z"/><path class="cls-1" d="M100.49,56.17a2.34,2.34,0,0,0,3.93,2.55h0q.58-.91,1.26-1.78A2.34,2.34,0,0,0,102,54.06,18.18,18.18,0,0,0,100.49,56.17Z"/><path class="cls-1" d="M100.07,61.64a2.34,2.34,0,0,0-3,1.45q-.42,1.22-.75,2.48a2.34,2.34,0,1,0,4.54,1.17q.28-1.08.63-2.1a2.34,2.34,0,0,0-1.42-3Z"/><path class="cls-1" d="M98.34,80.39a2.34,2.34,0,0,0-1.61,2.83q.3,1.22.68,2.34a2.43,2.43,0,1,0,4.68-1.36,6,6,0,0,1-.91-2.1A2.34,2.34,0,0,0,98.34,80.39Z"/><path class="cls-1" d="M147,144.2a2.34,2.34,0,1,0,2.78-3.76h0L147.84,139a2.35,2.35,0,0,0-2.83,3.74h0Z"/><path class="cls-1" d="M146.23,54a2.34,2.34,0,0,0,1.57-4.07c-.63-.56-1.31-1.12-2-1.64a2.34,2.34,0,0,0-3,3.59L143,52a18.24,18.24,0,0,1,1.68,1.4A2.34,2.34,0,0,0,146.23,54Z"/><path class="cls-1" d="M152.84,55.72A2.34,2.34,0,1,0,149,58.27q.61.91,1.17,1.87a2.33,2.33,0,0,0,4.07-2.29Q153.57,56.77,152.84,55.72Z"/><path class="cls-1" d="M124.78,125.52a2.34,2.34,0,0,0,3.25-3.37h0l-1.68-1.66a2.34,2.34,0,0,0-3.27,3.25Z"/><path class="cls-1" d="M139.31,138.29a2.34,2.34,0,0,0,2.92-3.65l-1.82-1.54a2.34,2.34,0,0,0-3,3.6Z"/><path class="cls-1" d="M131.29,44.5a2.34,2.34,0,0,0-2.06-2.59h-2.69a2.34,2.34,0,0,0,.14,4.68h2.13A2.34,2.34,0,0,0,131.29,44.5Z"/><path class="cls-1" d="M131.92,132.07a2.34,2.34,0,0,0,3.24-3.37l-.15-.13L133.25,127a2.34,2.34,0,0,0-3.13,3.48Z"/><path class="cls-1" d="M135.24,47.94q1.05.35,2.06.77a2.34,2.34,0,0,0,1.82-4.3q-1.17-.49-2.34-.91a2.35,2.35,0,0,0-1.54,4.44Z"/><path class="cls-1" d="M153.9,149.09a2.34,2.34,0,0,0,2.55,0l1.08-.68a2.35,2.35,0,0,0-2.34-4.07,2.35,2.35,0,0,0-2.34,4.07Z"/><path class="cls-1" d="M204.71,57q.68.87,1.29,1.8a2.34,2.34,0,1,0,3.9-2.55q-.7-1.08-1.5-2.1A2.34,2.34,0,0,0,204.71,57Z"/><path class="cls-1" d="M211.75,68.51a2.34,2.34,0,0,0,2.34-2.92c-.21-.84-.47-1.66-.75-2.48a2.34,2.34,0,0,0-4.48,1.36l.06.16q.35,1,.63,2.1A2.34,2.34,0,0,0,211.75,68.51Z"/><path class="cls-1" d="M198.3,51c.61.4,1.19.84,1.78,1.29a2.34,2.34,0,0,0,2.9-3.67c-.68-.54-1.38-1-2.08-1.52a2.34,2.34,0,0,0-2.6,3.9Z"/><path class="cls-1" d="M177.09,127l-1.78,1.57a2.34,2.34,0,0,0,3.09,3.51l1.8-1.61a2.34,2.34,0,0,0-3.11-3.46Z"/><path class="cls-1" d="M173.7,43.47a21.15,21.15,0,0,0-2.34.91A2.34,2.34,0,1,0,173,48.75l.17-.07c.68-.28,1.36-.54,2.06-.77a2.35,2.35,0,1,0-1.54-4.44Z"/><path class="cls-1" d="M165.73,53.36q.82-.72,1.71-1.4a2.36,2.36,0,1,0-2.9-3.72q-1,.77-2,1.64a2.36,2.36,0,0,0,3.18,3.48Z"/><path class="cls-1" d="M213.06,85.68q.37-1.22.68-2.34a2.34,2.34,0,0,0-4.54-1.15h0q-.28,1.1-.61,2.17a2.34,2.34,0,0,0,1.55,2.92h0a2.82,2.82,0,0,0,2.9-1.61Z"/><path class="cls-1" d="M157.05,61.05a2.34,2.34,0,0,0,3.18-.89q.54-1,1.17-1.87a2.34,2.34,0,0,0-3.88-2.62q-.72,1.08-1.36,2.2A2.34,2.34,0,0,0,157.05,61.05Z"/><path class="cls-1" d="M169.91,133.1l-1.82,1.5a2.34,2.34,0,0,0,2.92,3.65l1.87-1.52a2.34,2.34,0,1,0-3-3.62Z"/><path class="cls-1" d="M183.94,120.54l-1.68,1.66a2.36,2.36,0,0,0,3.32,3.34l1.73-1.68a2.36,2.36,0,1,0-3.37-3.32Z"/><path class="cls-1" d="M214.9,75.81V73.26a2.34,2.34,0,1,0-4.68,0v2.13a2.34,2.34,0,0,0,2.17,2.48h.16A2.34,2.34,0,0,0,214.9,75.81Z"/><path class="cls-1" d="M162.48,139l-1.89,1.4a2.34,2.34,0,1,0,2.78,3.76l1.94-1.45a2.34,2.34,0,0,0-2.66-3.84Z"/><path class="cls-1" d="M190.26,47.44q1.05.28,2.1.63a2.34,2.34,0,0,0,1.54-4.42q-1.22-.42-2.46-.75a2.35,2.35,0,0,0-1.19,4.54Z"/><path class="cls-1" d="M190.56,119.39a2.34,2.34,0,0,0,1.73-.75l1.64-1.92a2.34,2.34,0,0,0-3.32-3.29l-.16.18-1.59,1.75a2.34,2.34,0,0,0,1.71,4Z"/><path class="cls-1" d="M181.44,46.58h2.36a2.34,2.34,0,1,0,0-4.68h-2.62a2.34,2.34,0,0,0,.26,4.68Z"/><path class="cls-1" d="M152.84,90a2.34,2.34,0,0,0,4.56,0,9,9,0,0,1,.26-.89,2.6,2.6,0,1,0-5.07,0A9,9,0,0,1,152.84,90Z"/><path class="cls-1" d="M129.46,93.51a18.4,18.4,0,0,0,.4,2.62A2.34,2.34,0,0,0,132.2,98h.51a2.34,2.34,0,0,0,1.75-2.8h0a14.26,14.26,0,0,1-.33-2A2.34,2.34,0,0,0,131.59,91h-.07A2.34,2.34,0,0,0,129.46,93.51Z"/><path class="cls-1" d="M131,85.51a2.34,2.34,0,0,0,4.14,2.15,9.35,9.35,0,0,1,1-1.54,2.34,2.34,0,0,0-3.65-2.92A14.24,14.24,0,0,0,131,85.51Z"/><path class="cls-1" d="M134,105.27a2.34,2.34,0,1,0,3.88-2.57q-.61-.91-1.15-1.85a2.34,2.34,0,0,0-4,2.34Q133.27,104.24,134,105.27Z"/><path class="cls-1" d="M140.64,83a9.59,9.59,0,0,1,1.82-.4,2.35,2.35,0,0,0-.54-4.68,14.26,14.26,0,0,0-2.71.58A2.36,2.36,0,0,0,140.64,83Z"/><path class="cls-1" d="M148.4,114.13a2.34,2.34,0,1,0-3.17,3.44l.11.09,1.82,1.54a2.34,2.34,0,1,0,3-3.62Z"/><path class="cls-1" d="M143.49,109.53,142,107.89a2.34,2.34,0,0,0-3.48,3.13h0l1.64,1.75a2.34,2.34,0,0,0,3.37-3.25Z"/><path class="cls-1" d="M147.89,83.55a9.56,9.56,0,0,1,1.57,1,2.34,2.34,0,1,0,2.88-3.69A14.4,14.4,0,0,0,150,79.39a2.34,2.34,0,0,0-2.1,4.16Z"/><path class="cls-1" d="M155.18,119.51a2.34,2.34,0,0,0-2.34,4l1,.7a2.34,2.34,0,0,0,2.55,0l1-.7a2.34,2.34,0,0,0-2.27-4Z"/><path class="cls-1" d="M161.68,119.79a2.34,2.34,0,0,0,1.47-.54l1.82-1.52a2.34,2.34,0,0,0-3-3.55h0l-1.73,1.45a2.34,2.34,0,0,0,1.47,4.16Z"/><path class="cls-1" d="M174.4,106.39a2.34,2.34,0,0,0,1.94-1c.47-.7.89-1.38,1.31-2.1a2.34,2.34,0,1,0-3.95-2.51l-.1.17q-.54.94-1.15,1.85a2.34,2.34,0,0,0,1.94,3.62Z"/><path class="cls-1" d="M170.19,112.82l1.64-1.75a2.34,2.34,0,0,0-3.48-3.13l-1.52,1.64a2.34,2.34,0,0,0,3.37,3.25Z"/><path class="cls-1" d="M167.95,82.61a9.59,9.59,0,0,1,1.82.4,2.34,2.34,0,0,0,.72.12,2.37,2.37,0,1,0,.72-4.68h0a14.24,14.24,0,0,0-2.71-.61,2.4,2.4,0,0,0-.56,4.77Z"/><path class="cls-1" d="M180.55,96.2a18.45,18.45,0,0,0,.35-2.6,2.35,2.35,0,0,0-4.68-.4h0a13.87,13.87,0,0,1-.33,2A2.34,2.34,0,0,0,177.65,98h.54A2.34,2.34,0,0,0,180.55,96.2Z"/><path class="cls-1" d="M174.29,86.17a9.54,9.54,0,0,1,1,1.57,2.34,2.34,0,0,0,4.16-2.15h0a14.26,14.26,0,0,0-1.5-2.34,2.35,2.35,0,1,0-3.67,2.92Z"/><path class="cls-1" d="M161,84.51a9.54,9.54,0,0,1,1.57-1,2.35,2.35,0,1,0-2.08-4.21,14.31,14.31,0,0,0-2.34,1.47A2.34,2.34,0,0,0,161,84.51Z"/><path d="M197.11,88.55A8.89,8.89,0,1,0,202,104.86l.08-.43a7.45,7.45,0,0,1,3.77-5.32,8.88,8.88,0,0,0-8.73-10.57Zm7.83,49.17a7.49,7.49,0,0,1-7.48-7.49c0-.19,0-.38,0-.56a2.61,2.61,0,0,1,.05-1L201.31,109H185.73a3.93,3.93,0,0,0-4.08,3.23l-4.09,21.54a.82.82,0,0,0,0,.45,4.32,4.32,0,0,0,0,.55,4.15,4.15,0,0,0,8.24.71l2.57-16.08,0,55.92a4.39,4.39,0,0,0,4.41,4.15,5,5,0,0,0,3.85-2.08V144.81a1,1,0,0,1,2,0V177c0,1.45,1.8,2.46,3.49,2.46a4,4,0,0,0,4-4.15L206,137.65A8.47,8.47,0,0,1,204.95,137.72Z"/><path d="M222.09,79a9.88,9.88,0,1,0,5.81,17.86v-.06a7.85,7.85,0,0,1,3.74-5.47A9.88,9.88,0,0,0,222.09,79Zm8.71,54.32a8,8,0,0,1-8-8c0-.21,0-.42,0-.61a4.57,4.57,0,0,1,0-1.34L227.09,101H209.44a4.66,4.66,0,0,0-4.54,3.93L200.36,129a1.25,1.25,0,0,0,0,.58,5.47,5.47,0,0,0,0,.65,4.61,4.61,0,0,0,9.15.82l2.86-17.86,0,61.62a4.48,4.48,0,0,0,4.44,4.61c1.71,0,3.82-.93,3.82-2.31V141.47c0-.59.91-1.06,1.5-1.06s1.5.48,1.5,1.06v35.21c0,1.61,2.07,2.73,3.94,2.73A4.51,4.51,0,0,0,232,174.8l-.09-41.6A8.61,8.61,0,0,1,230.79,133.28Z"/><path d="M249.83,68.32a11,11,0,1,0,6.83,19.55,8.46,8.46,0,0,1,3.7-5.51,11,11,0,0,0-10.53-14Zm9.67,60a8.57,8.57,0,0,1-8.56-8.57c0-.24,0-.47,0-.69a4.08,4.08,0,0,1,0-1.34L255.71,93H235.78a5.08,5.08,0,0,0-5,4.27l-5,26.73a1.29,1.29,0,0,0,0,.62,5.66,5.66,0,0,0-.06.71,5.12,5.12,0,0,0,10.17.9L239,106.33l0,68a5.15,5.15,0,0,0,5.15,5.12,5.3,5.3,0,0,0,4.46-2.57V137.77c0-.65.85-1.18,1.5-1.18s1.5.53,1.5,1.18v38.61c0,1.78,2.26,3,4.34,3a5,5,0,0,0,5-5.12l-.11-46A9.47,9.47,0,0,1,259.51,128.35Z"/><path d="M280.68,80.87a12.19,12.19,0,1,0-12.19-12.19A12.2,12.2,0,0,0,280.68,80.87ZM307.47,119a1.43,1.43,0,0,0,0-.69l-5.6-29.67a5.67,5.67,0,0,0-5.61-4.79H265.06a5.66,5.66,0,0,0-5.6,4.76l-5.6,29.71a1.45,1.45,0,0,0,0,.69,6.61,6.61,0,0,0-.06.8,5.69,5.69,0,0,0,11.29,1l3.53-22.06-.05,75a5.75,5.75,0,0,0,5.76,5.69,6,6,0,0,0,5-2.85v-42.9a1.31,1.31,0,1,1,2.63,0V176a5.47,5.47,0,0,0,5.14,3.37,5.68,5.68,0,0,0,5.67-5.69l-.06-75,3.53,22.08a5.69,5.69,0,0,0,11.29-1A5.21,5.21,0,0,0,307.47,119Z"/><path d="M103.26,106.82a8.5,8.5,0,1,0-2.23-3.76A7,7,0,0,1,103.26,106.82ZM130,134.46a.93.93,0,0,0,0-.46l-6.78-19.48a3.67,3.67,0,0,0-3.7-3.08H104.8l6,17.37,0,.16a3.7,3.7,0,0,1,.05,1,4.41,4.41,0,0,1,0,.56,6.89,6.89,0,0,1-8.41,6.74l1.42,5.56a6.11,6.11,0,0,1-1,5.21,6.17,6.17,0,0,1-4.87,2.39h3.12v25.25a3.63,3.63,0,0,0,3.63,3.72c1.39,0,3.13-.79,3.13-1.91V150.44h2v26.72c0,1.31,1.89,2.22,3.42,2.22a3.71,3.71,0,0,0,3.75-3.69V150.44h3.79a2.75,2.75,0,0,0,2.72-3.65L117,121.13v0l5.49,14.56a3.78,3.78,0,0,0,7.47-1.2Z"/><path d="M78,98.74a9.43,9.43,0,1,0-1.72-2.83A7.27,7.27,0,0,1,78,98.74ZM108.15,130a1,1,0,0,0,0-.51l-7.54-21.62a4.05,4.05,0,0,0-4.11-3.39H79.85l6.75,19.34,0,.14A3.74,3.74,0,0,1,86.7,125a4.37,4.37,0,0,1,0,.62A7.37,7.37,0,0,1,79.38,133a7.25,7.25,0,0,1-2.1-.31L79,139.38a6.49,6.49,0,0,1-1,5.53,6.56,6.56,0,0,1-5.17,2.54H71v-.13c0,.15.68.13,1.16.13h4.1v27.7a4.2,4.2,0,0,0,4.16,4.2,4.48,4.48,0,0,0,3.6-2.05V147.44h2v29.48c1,1.45,2.09,2.46,3.78,2.46a4.23,4.23,0,0,0,4.16-4.24l0-27.7h4.21a3,3,0,0,0,3.14-3.92L94,115.15v0l6,16.18a4.15,4.15,0,0,0,8.23-.75A4,4,0,0,0,108.15,130Z"/><path d="M49.81,89.5A10.44,10.44,0,1,0,48.89,88,7.81,7.81,0,0,1,49.81,89.5ZM83.92,125a1.14,1.14,0,0,0,0-.56l-8.37-24.1A4.57,4.57,0,0,0,71,96.44H52.16l7.53,21.66,0,.17a3.93,3.93,0,0,1,0,1.21,5.65,5.65,0,0,1,0,.64A7.9,7.9,0,0,1,51.92,128a7.81,7.81,0,0,1-2.83-.53l2.06,8a6.24,6.24,0,0,1-1.08,5.6,6.61,6.61,0,0,1-5.43,2.32H42v.64a6.92,6.92,0,0,0,1.93.36h4.56l0,30.26A4.61,4.61,0,0,0,53,179.36a4.76,4.76,0,0,0,4-2.3V144.44h3v32.2c0,1.62,2,2.74,3.86,2.74a4.53,4.53,0,0,0,4.45-4.68l-.2-30.26h4.68a3.32,3.32,0,0,0,3.39-4.39L68,108.5v0l6.74,18a4.65,4.65,0,0,0,9.22-.83A4.56,4.56,0,0,0,83.92,125Z"/><path d="M57,119.4a1.29,1.29,0,0,0,0-.63L47.73,92a5.11,5.11,0,0,0-5.07-4.32H14.4a5.11,5.11,0,0,0-5.07,4.28L0,118.78a1.3,1.3,0,0,0,0,.63,6.09,6.09,0,0,0-.05.72,5.15,5.15,0,0,0,5.15,5.15A5.32,5.32,0,0,0,10.37,121L18,101.08v.13l-9.08,35c-.69,2.71.88,4.91,3.68,4.91h5.06l0,33.1a5.2,5.2,0,0,0,5.19,5.16,5.44,5.44,0,0,0,4.49-2.57V141.11H29.8v35.23a4.74,4.74,0,0,0,4.6,3,5.14,5.14,0,0,0,5.1-5.17l-.06-33.1h5.2a3.77,3.77,0,0,0,3.86-4.91l-9-35.09v0l7.4,20a5.13,5.13,0,0,0,10.18-.93A5.47,5.47,0,0,0,57,119.4ZM28.53,84.82A11.66,11.66,0,1,0,16.88,73.16,11.67,11.67,0,0,0,28.53,84.82Z"/></g></g></svg>