<svg xmlns="http://www.w3.org/2000/svg" viewBox="0 0 164.41 109.23"><defs><style>.cls-1{fill:#ff0037;}.cls-2{fill:#0068ff;}</style></defs><title>randomize</title><g id="Layer_2" data-name="Layer 2"><g id="Layer_1-2" data-name="Layer 1"><path class="cls-1" d="M143.68.69l-6.73,6.73,6.84,6.84L145.49,16H123.18c-13.23,0-20.9,1.83-26.48,6.33s-9.37,11.86-15,23l-.86,1.68C79.9,48.67,79,50.47,78,52.35s-2,3.9-3,5.77l-.72,1.43-.05.1c-10.92,21.27-12.32,24-33.08,24H18.91L20.62,82l6.84-6.84-6.73-6.73-20,20.1,20,20,6.73-6.73-6.84-6.84-1.71-1.71H41.15c13.28,0,21-1.83,26.55-6.32s9.39-11.87,15.07-23l.41-.8c1-2,2.09-4.09,3.28-6.3,1.06-2,2-3.9,3-5.78l.72-1.43.13-.26c10.86-21.19,12.26-23.92,33-23.92h22.22l-1.71,1.71L136.95,34l6.73,6.73,20-20Z"/><path d="M88.18,53.58l-.88-1.7c-1.33-2.57-2.55-4.94-3.68-7.08l-.82-1.72-1.43,2.78c-1.13,2.2-2.34,4.59-3.68,7.08L76.29,55.6l.81,1.59c1.33,2.57,2.55,4.94,3.68,7.08L81.7,66l1.42-2.78c1.13-2.21,2.34-4.59,3.68-7.08Z"/><path class="cls-2" d="M79.6,38.21C70.71,21.38,65.34,15.49,41.09,15.49h-21l8-8L20.72,0,0,20.71,20.72,41.43,28.16,34l-8-8h21c20.41,0,21.56,2.23,32.54,23.58l0,.06c1-1.95,2-3.8,2.86-5.52Z"/><path class="cls-2" d="M164.41,88.51,143.68,67.78l-7.44,7.41,8,8h-21c-20.41,0-21.56-2.23-32.54-23.56l0-.09c-1.26,2.35-2.45,4.57-3.45,6.68l-2.47,4.79c8.9,16.8,14.27,22.69,38.51,22.69h21l-8,8,7.44,7.44Z"/></g></g></svg>