<svg xmlns="http://www.w3.org/2000/svg" viewBox="0 0 122.18 122.18"><defs><style>.cls-1{fill:#fff;}.cls-2{fill:#ed0028;}.cls-3{fill:#111;}</style></defs><title>see-impact</title><g id="Layer_2" data-name="Layer 2"><g id="Layer_1-2" data-name="Layer 1"><path class="cls-1" d="M63.54,80.81a1.33,1.33,0,0,0-1.33-1.33H59.14a1.34,1.34,0,1,0,0,2.67h3.06a1.33,1.33,0,0,0,1.34-1.33S63.54,80.82,63.54,80.81Z"/><circle class="cls-2" cx="61.09" cy="2.27" r="2.27"/><path class="cls-2" d="M62.29,5.2h-2.4a2.34,2.34,0,0,0-2.27,2.27L57,13.74c-.13,1.07,1.07,2,2.13,2.27v3.6a1.77,1.77,0,0,0,1.73,1.73h.8a1.77,1.77,0,0,0,1.73-1.73h0V16c1.07-.27,2.27-1.2,2.13-2.27l-.67-6.27C64.43,6.4,63.49,5.2,62.29,5.2Z"/><circle class="cls-3" cx="42.95" cy="5.2" r="2.27" transform="translate(0.5 13.53) rotate(-18)"/><path class="cls-3" d="M45,7.6l-2.27.67a2.4,2.4,0,0,0-1.47,2.93l1.2,6.14c.27,1.07,1.6,1.6,2.8,1.47l1.07,3.33a1.64,1.64,0,0,0,2.13,1.07h0l.67-.27a1.64,1.64,0,0,0,1.07-2.13h0l-1.07-3.47c.93-.53,1.73-1.87,1.33-2.8L47.75,8.8A2.44,2.44,0,0,0,45,7.6Z"/><circle class="cls-2" cx="26.58" cy="13.59" r="2.27" transform="translate(-2.91 18.22) rotate(-36)"/><path class="cls-2" d="M29.21,15.21l-1.87,1.33a2.33,2.33,0,0,0-.53,3.2l3.07,5.47c.53.93,2,1.07,3.07.53l2.13,2.93a1.71,1.71,0,0,0,2.4.4h0l.67-.4a1.71,1.71,0,0,0,.4-2.4h0l-2.13-2.93a2.46,2.46,0,0,0,.4-3.07l-4.4-4.54A2.47,2.47,0,0,0,29.21,15.21Z"/><circle class="cls-2" cx="13.58" cy="26.5" r="2.27" transform="translate(-15.84 21.91) rotate(-54)"/><path class="cls-2" d="M16.67,27.34l-1.33,1.87a2.33,2.33,0,0,0,.53,3.2l4.67,4.27c.8.8,2.27.4,3.07-.4l2.8,2.13a1.71,1.71,0,0,0,2.4-.4h0l.4-.67a1.71,1.71,0,0,0-.4-2.4h0l-2.93-2.13c.4-1.07.4-2.53-.53-3.07l-5.47-3.07A2.47,2.47,0,0,0,16.67,27.34Z"/><circle class="cls-2" cx="5.22" cy="42.93" r="2.27" transform="translate(-37.22 34.63) rotate(-72)"/><path class="cls-2" d="M8.4,42.68,7.74,45A2.4,2.4,0,0,0,9.2,47.89l5.74,2.67a2.51,2.51,0,0,0,2.8-1.33l3.33,1.07a1.64,1.64,0,0,0,2.13-1.07h0l.27-.67a1.64,1.64,0,0,0-1.07-2.13h0l-3.47-1.07c.13-1.07-.4-2.53-1.47-2.8l-6.14-1.2A2.22,2.22,0,0,0,8.4,42.68Z"/><circle class="cls-3" cx="2.27" cy="61.09" r="2.27"/><path class="cls-3" d="M5.2,59.89v2.4a2.34,2.34,0,0,0,2.27,2.27l6.27.67c1.07.13,2-1.07,2.27-2.13h3.6a1.77,1.77,0,0,0,1.73-1.73h0v-.8a1.77,1.77,0,0,0-1.73-1.73H16c-.27-1.07-1.2-2.27-2.27-2.13l-6.27.67C6.4,57.76,5.2,58.69,5.2,59.89Z"/><circle class="cls-3" cx="5.19" cy="79.24" r="2.27" transform="translate(-24.23 5.48) rotate(-18)"/><path class="cls-3" d="M7.6,77.23l.67,2.27A2.4,2.4,0,0,0,11.2,81l6.14-1.2c1.07-.27,1.6-1.6,1.47-2.8l3.33-1.07a1.64,1.64,0,0,0,1.07-2.13h0l-.27-.67A1.64,1.64,0,0,0,20.81,72h0L17.34,73.1c-.53-.93-1.87-1.73-2.8-1.33L8.8,74.43A2.44,2.44,0,0,0,7.6,77.23Z"/><circle class="cls-2" cx="13.6" cy="95.6" r="2.27" transform="translate(-53.6 26.25) rotate(-36)"/><path class="cls-2" d="M15.21,93l1.33,1.87a2.33,2.33,0,0,0,3.2.53l5.47-3.07c.93-.53,1.07-2,.53-3.07l2.93-2.13a1.71,1.71,0,0,0,.4-2.4h0l-.4-.67a1.71,1.71,0,0,0-2.4-.4h0l-2.93,2.13a2.46,2.46,0,0,0-3.07-.4l-4.54,4.4A2.47,2.47,0,0,0,15.21,93Z"/><circle class="cls-3" cx="26.49" cy="108.61" r="2.27" transform="translate(-76.94 66.2) rotate(-54)"/><path class="cls-3" d="M27.34,105.51l1.87,1.33a2.33,2.33,0,0,0,3.2-.53l4.27-4.67c.8-.8.4-2.27-.4-3.07l2.13-2.8a1.71,1.71,0,0,0-.4-2.4h0l-.67-.4a1.71,1.71,0,0,0-2.4.4h0l-2.13,2.93c-1.07-.4-2.53-.4-3.07.53l-3.07,5.47A2.47,2.47,0,0,0,27.34,105.51Z"/><circle class="cls-2" cx="42.94" cy="116.96" r="2.27" transform="translate(-81.57 121.66) rotate(-72)"/><path class="cls-2" d="M42.68,113.78l2.27.67A2.4,2.4,0,0,0,47.89,113l2.67-5.74a2.51,2.51,0,0,0-1.33-2.8l1.07-3.33A1.64,1.64,0,0,0,49.22,99h0l-.67-.27a1.64,1.64,0,0,0-2.13,1.07h0l-1.07,3.47c-1.07-.13-2.53.4-2.8,1.47l-1.2,6.14A2.22,2.22,0,0,0,42.68,113.78Z"/><circle class="cls-2" cx="61.09" cy="119.92" r="2.27"/><path class="cls-2" d="M59.89,117h2.4a2.34,2.34,0,0,0,2.27-2.27l.67-6.27c.13-1.07-1.07-2-2.13-2.27v-3.6a1.77,1.77,0,0,0-1.73-1.73h-.8a1.77,1.77,0,0,0-1.73,1.73h0v3.6c-1.07.27-2.27,1.2-2.13,2.27l.67,6.27C57.76,115.78,58.69,117,59.89,117Z"/><circle class="cls-3" cx="79.23" cy="117" r="2.27" transform="translate(-32.27 30.21) rotate(-18)"/><path class="cls-3" d="M77.23,114.58l2.27-.67A2.4,2.4,0,0,0,81,111l-1.2-6.27c-.27-1.07-1.6-1.6-2.8-1.47L75.9,99.91a1.64,1.64,0,0,0-2.13-1.07h0l-.67.27A1.64,1.64,0,0,0,72,101.24h0l1.07,3.47c-.93.53-1.73,1.87-1.33,2.8l2.67,5.74A2.36,2.36,0,0,0,77.23,114.58Z"/><circle class="cls-2" cx="95.6" cy="108.58" r="2.27" transform="translate(-45.57 76.94) rotate(-36)"/><path class="cls-2" d="M93,107l1.87-1.33a2.33,2.33,0,0,0,.53-3.2L92.3,97c-.53-.93-2-1.07-3.07-.53L87.1,93.51a1.71,1.71,0,0,0-2.4-.4h0l-.67.4a1.71,1.71,0,0,0-.4,2.4h0l2.13,2.93a2.46,2.46,0,0,0-.4,3.07l4.27,4.67A2.83,2.83,0,0,0,93,107Z"/><circle class="cls-3" cx="108.61" cy="95.69" r="2.27" transform="translate(-32.65 127.31) rotate(-54)"/><path class="cls-3" d="M105.51,94.84,106.84,93a2.33,2.33,0,0,0-.53-3.2l-4.67-4.27c-.8-.8-2.27-.4-3.07.4l-2.8-2.13a1.71,1.71,0,0,0-2.4.4h0l-.4.67a1.71,1.71,0,0,0,.4,2.4h0l2.93,2.13c-.4,1.07-.4,2.53.53,3.07l5.47,3.07A2.47,2.47,0,0,0,105.51,94.84Z"/><circle class="cls-3" cx="116.97" cy="79.24" r="2.27" transform="translate(5.46 166) rotate(-72)"/><path class="cls-3" d="M113.78,79.5l.67-2.27A2.4,2.4,0,0,0,113,74.3l-5.74-2.67a2.51,2.51,0,0,0-2.8,1.33l-3.33-1.07A1.64,1.64,0,0,0,99,73h0l-.27.67a1.64,1.64,0,0,0,1.07,2.13h0l3.47,1.07c-.13,1.07.4,2.53,1.47,2.8l6.14,1.2A2.22,2.22,0,0,0,113.78,79.5Z"/><circle class="cls-2" cx="119.92" cy="61.09" r="2.27"/><path class="cls-2" d="M117,62.29v-2.4a2.34,2.34,0,0,0-2.27-2.27L108.44,57c-1.07-.13-2,1.07-2.27,2.13h-3.6a1.77,1.77,0,0,0-1.73,1.73h0v.8a1.77,1.77,0,0,0,1.73,1.73h3.6c.27,1.07,1.2,2.27,2.27,2.13l6.27-.67C115.78,64.43,117,63.49,117,62.29Z"/><circle class="cls-3" cx="116.99" cy="42.96" r="2.27" transform="translate(-7.55 38.25) rotate(-18)"/><path class="cls-3" d="M114.58,45l-.67-2.27A2.4,2.4,0,0,0,111,41.22l-6.27,1.2c-1.07.27-1.6,1.6-1.47,2.8l-3.33,1.07a1.64,1.64,0,0,0-1.07,2.13h0l.27.67a1.64,1.64,0,0,0,2.13,1.07h0l3.47-1.07c.53.93,1.87,1.73,2.8,1.33l5.74-2.67A2.36,2.36,0,0,0,114.58,45Z"/><circle class="cls-2" cx="108.59" cy="26.58" r="2.27" transform="translate(5.12 68.9) rotate(-36)"/><path class="cls-2" d="M107,29.21l-1.33-1.87a2.33,2.33,0,0,0-3.2-.53L97,29.88c-.93.53-1.07,2-.53,3.07l-2.93,2.13a1.71,1.71,0,0,0-.4,2.4h0l.4.67a1.71,1.71,0,0,0,2.4.4h0l2.93-2.13a2.46,2.46,0,0,0,3.07.4l4.67-4.27A2.83,2.83,0,0,0,107,29.21Z"/><circle class="cls-2" cx="95.69" cy="13.58" r="2.27" transform="translate(28.46 83.01) rotate(-54)"/><path class="cls-2" d="M94.84,16.67,93,15.34a2.33,2.33,0,0,0-3.2.53L85.5,20.54c-.8.8-.4,2.27.4,3.07l-2.13,2.8a1.71,1.71,0,0,0,.4,2.4h0l.67.4a1.71,1.71,0,0,0,2.4-.4h0l2.13-2.93c1.07.4,2.53.4,3.07-.53l3.07-5.47A2.47,2.47,0,0,0,94.84,16.67Z"/><circle class="cls-3" cx="79.25" cy="5.21" r="2.27" transform="matrix(0.31, -0.95, 0.95, 0.31, 49.8, 78.98)"/><path class="cls-3" d="M79.5,8.4l-2.27-.67A2.4,2.4,0,0,0,74.3,9.2l-2.67,5.74A2.51,2.51,0,0,0,73,17.74L71.9,21.08A1.64,1.64,0,0,0,73,23.21h0l.67.27a1.64,1.64,0,0,0,2.13-1.07h0l1.07-3.47c1.07.13,2.53-.4,2.8-1.47l1.2-6.14A2.22,2.22,0,0,0,79.5,8.4Z"/><path d="M81.09,57.05a8.88,8.88,0,0,1,0,9.4,1.65,1.65,0,0,1-2.55.25l-.09-.09a1.62,1.62,0,0,1-.2-2,5.48,5.48,0,0,0,0-5.7,1.62,1.62,0,0,1,.2-2l.09-.09a1.65,1.65,0,0,1,2.55.25ZM83.39,52l0,0a1.65,1.65,0,0,0-.12,2.17,12.21,12.21,0,0,1,0,15.11,1.65,1.65,0,0,0,.14,2.19l.05.05a1.66,1.66,0,0,0,2.35,0l.12-.14a15.66,15.66,0,0,0,0-19.31,1.66,1.66,0,0,0-2.33-.29l-.17.15ZM42.91,56.92l-.09-.09a1.65,1.65,0,0,0-2.55.25,8.88,8.88,0,0,0,0,9.4,1.65,1.65,0,0,0,2.55.25l.09-.09a1.62,1.62,0,0,0,.2-2,5.48,5.48,0,0,1,0-5.7,1.62,1.62,0,0,0-.2-2ZM38,52a1.66,1.66,0,0,0-2.35,0l-.12.14a15.66,15.66,0,0,0,0,19.31,1.66,1.66,0,0,0,2.34.26l.15-.14,0,0a1.65,1.65,0,0,0,.12-2.17,12.21,12.21,0,0,1,0-15.11A1.65,1.65,0,0,0,38,52Zm37.16-7.5V79a5.45,5.45,0,0,1-5.34,5.52H51.58A5.45,5.45,0,0,1,46.24,79V44.47A5.45,5.45,0,0,1,51.58,39H69.79A5.45,5.45,0,0,1,75.13,44.47ZM71,46.82a.35.35,0,0,0-.35-.34h-20a.35.35,0,0,0-.35.35h0V76.71a.35.35,0,0,0,.35.35h20a.35.35,0,0,0,.35-.35Zm4.09-2.35V79a5.45,5.45,0,0,1-5.34,5.52H51.58A5.45,5.45,0,0,1,46.24,79V44.47A5.45,5.45,0,0,1,51.58,39H69.79A5.45,5.45,0,0,1,75.13,44.47ZM71,46.82a.35.35,0,0,0-.35-.34h-20a.35.35,0,0,0-.35.35h0V76.71a.35.35,0,0,0,.35.35h20a.35.35,0,0,0,.35-.35Zm4.09-2.35V79a5.45,5.45,0,0,1-5.34,5.52H51.58A5.45,5.45,0,0,1,46.24,79V44.47A5.45,5.45,0,0,1,51.58,39H69.79A5.45,5.45,0,0,1,75.13,44.47ZM71,46.82a.35.35,0,0,0-.35-.34h-20a.35.35,0,0,0-.35.35h0V76.71a.35.35,0,0,0,.35.35h20a.35.35,0,0,0,.35-.35Zm4.09-2.35V79a5.45,5.45,0,0,1-5.34,5.52H51.58A5.45,5.45,0,0,1,46.24,79V44.47A5.45,5.45,0,0,1,51.58,39H69.79A5.45,5.45,0,0,1,75.13,44.47ZM71,46.82a.35.35,0,0,0-.35-.34h-20a.35.35,0,0,0-.35.35h0V76.71a.35.35,0,0,0,.35.35h20a.35.35,0,0,0,.35-.35Zm4.09-2.35V79a5.45,5.45,0,0,1-5.34,5.52H51.58A5.45,5.45,0,0,1,46.24,79V44.47A5.45,5.45,0,0,1,51.58,39H69.79A5.45,5.45,0,0,1,75.13,44.47ZM71,46.82a.35.35,0,0,0-.35-.34h-20a.35.35,0,0,0-.35.35h0V76.71a.35.35,0,0,0,.35.35h20a.35.35,0,0,0,.35-.35ZM67.93,62.68a1.46,1.46,0,0,1-1,1.76l-1.09.28.28,1.14a1.46,1.46,0,1,1-2.83.73L63,65.51l-2.47.64.28,1.09a1.46,1.46,0,1,1-2.83.73h0l-.28-1.09-1.1.26a1.46,1.46,0,1,1-.73-2.83h0L56.92,64l-.64-2.47-1.09.28A1.46,1.46,0,1,1,54.46,59h0l1.09-.28-.26-1.1a1.46,1.46,0,1,1,2.83-.73L58.39,58l2.47-.64-.28-1.09a1.46,1.46,0,1,1,2.83-.73l.28,1.09,1.1-.26a1.46,1.46,0,1,1,.73,2.83l-1.09.28.64,2.47,1.09-.28a1.46,1.46,0,0,1,1.76,1Z"/><path class="cls-2" d="M81.09,57a8.88,8.88,0,0,1,0,9.4,1.65,1.65,0,0,1-2.55.25l-.09-.09a1.62,1.62,0,0,1-.2-2,5.48,5.48,0,0,0,0-5.7,1.62,1.62,0,0,1,.2-2l.09-.09a1.65,1.65,0,0,1,2.55.25Z"/><path class="cls-2" d="M83.39,52l0,0a1.65,1.65,0,0,0-.12,2.17,12.21,12.21,0,0,1,0,15.11,1.65,1.65,0,0,0,.14,2.19l.05.05a1.66,1.66,0,0,0,2.35,0l.12-.14a15.66,15.66,0,0,0,0-19.31,1.66,1.66,0,0,0-2.33-.29l-.17.15Z"/><path class="cls-2" d="M42.91,56.91l-.09-.09a1.65,1.65,0,0,0-2.55.25,8.88,8.88,0,0,0,0,9.4,1.65,1.65,0,0,0,2.55.25l.09-.09a1.62,1.62,0,0,0,.2-2,5.48,5.48,0,0,1,0-5.7,1.62,1.62,0,0,0-.2-2Z"/><path class="cls-2" d="M38,52a1.66,1.66,0,0,0-2.35,0l-.12.14a15.66,15.66,0,0,0,0,19.31,1.66,1.66,0,0,0,2.34.26l.15-.14,0,0a1.65,1.65,0,0,0,.12-2.17,12.21,12.21,0,0,1,0-15.11A1.65,1.65,0,0,0,38,52Z"/><path class="cls-2" d="M67.93,62.67a1.46,1.46,0,0,1-1,1.76l-1.09.28.28,1.14a1.46,1.46,0,1,1-2.83.73L63,65.51l-2.47.64.28,1.09a1.46,1.46,0,1,1-2.83.73h0l-.28-1.09-1.1.26a1.46,1.46,0,1,1-.73-2.83h0L56.92,64l-.64-2.47-1.09.28A1.46,1.46,0,1,1,54.46,59h0l1.09-.28-.26-1.1a1.46,1.46,0,1,1,2.83-.73L58.39,58l2.47-.64-.28-1.09a1.46,1.46,0,1,1,2.83-.73l.28,1.09,1.1-.26a1.46,1.46,0,1,1,.73,2.83l-1.09.28.64,2.47,1.09-.28a1.46,1.46,0,0,1,1.76,1Z"/><rect class="cls-1" x="59.41" y="60.39" width="2.55" height="2.55" transform="translate(-13.52 17.18) rotate(-14.52)"/><path class="cls-1" d="M63.54,80.81a1.33,1.33,0,0,0-1.33-1.33H59.14a1.34,1.34,0,1,0,0,2.67h3.06a1.33,1.33,0,0,0,1.34-1.33S63.54,80.82,63.54,80.81Z"/></g></g></svg>