<svg xmlns="http://www.w3.org/2000/svg" viewBox="0 0 986.3 578.26"><defs><style>.cls-1,.cls-3{fill:#001ef9;}.cls-2,.cls-6,.cls-7{fill:none;}.cls-3,.cls-5,.cls-6,.cls-7,.cls-8{stroke:#000;}.cls-3{stroke-miterlimit:10;stroke-width:4px;}.cls-4{fill:#fff;}.cls-5,.cls-6,.cls-7,.cls-8{stroke-linecap:round;stroke-linejoin:round;}.cls-5{stroke-width:2px;}.cls-6,.cls-7{stroke-width:7px;}.cls-7{stroke-dasharray:1.02 13.25;}.cls-9{fill:#ff0031;}</style></defs><title>socialtune-header</title><g id="Layer_2" data-name="Layer 2"><g id="Layer_1-2" data-name="Layer 1"><path d="M750.68,74a21.86,21.86,0,0,0-1.87-8.78,4.16,4.16,0,0,0,.46-5.26,4.27,4.27,0,0,0-5.08-1.45,21.84,21.84,0,0,0-7.54-4.89,4.15,4.15,0,0,0-8-1.48A21.83,21.83,0,0,0,719.86,54a4.27,4.27,0,0,0-5.26-.46,4.16,4.16,0,0,0-1.45,5.08,21.84,21.84,0,0,0-4.89,7.53,4.15,4.15,0,0,0-1.48,8A21.86,21.86,0,0,0,708.64,83a4.15,4.15,0,0,0,4.62,6.72,21.86,21.86,0,0,0,7.53,4.89,4.15,4.15,0,0,0,8,1.48,21.85,21.85,0,0,0,8.78-1.87,4.15,4.15,0,0,0,6.72-4.62A21.85,21.85,0,0,0,749.19,82a4.15,4.15,0,0,0,1.48-8ZM750,79.4a1.75,1.75,0,0,1-1.18.22,1.78,1.78,0,0,1,.65-3.5A1.76,1.76,0,0,1,750,79.4Zm-1.71-5.53a3.53,3.53,0,0,0-2.85,2.24l-9.63-1.78a5.28,5.28,0,0,0-.65-3.17l8.08-5.58a4.29,4.29,0,0,0,3.47.85A19.57,19.57,0,0,1,748.3,73.87Zm-23.68,22.4a1.85,1.85,0,0,1-1.43-2.07,1.78,1.78,0,0,1,3.5.65,1.85,1.85,0,0,1-2.07,1.43Zm8.21-44.36A1.85,1.85,0,0,1,734.26,54a1.78,1.78,0,0,1-3.5-.65,1.85,1.85,0,0,1,2.07-1.43Zm.56,23a4.94,4.94,0,1,1,.05-1.2A4.77,4.77,0,0,1,733.39,75ZM746,60.57a1.63,1.63,0,0,1,.18,0,1.77,1.77,0,0,1,1.14.74,1.85,1.85,0,0,1-.46,2.48,1.78,1.78,0,0,1-2-2.93A1.75,1.75,0,0,1,746,60.57Zm-4.09,3-8.14,5.54A5.27,5.27,0,0,0,731,67.38l1.78-9.64a3.53,3.53,0,0,0,3.11-1.86A19.66,19.66,0,0,1,742.34,60,4.16,4.16,0,0,0,741.91,63.58Zm-13.66-9.11a4.21,4.21,0,0,0,2,2.8l-1.78,9.64a6.4,6.4,0,0,0-2.91.7l-5.46-8.06a4.14,4.14,0,0,0,.79-3.48A19.25,19.25,0,0,1,728.25,54.47Zm-12.31,1a1.77,1.77,0,0,1,1.33-.28c.06,0,.11,0,.16.06a1.76,1.76,0,0,1,1,.68,2.06,2.06,0,0,1,.26,1.45,2.45,2.45,0,0,1-.76,1.26h0l0-.12a1.73,1.73,0,0,1-1.3.21,1.74,1.74,0,0,1-1.43-1.93A1.78,1.78,0,0,1,715.94,55.5Zm-1.26,4.95a4.09,4.09,0,0,0,3.54.46L723.76,69A5.28,5.28,0,0,0,722,71.77L712.38,70a3.53,3.53,0,0,0-1.86-3.11A19.77,19.77,0,0,1,714.68,60.45ZM706.54,70a1.85,1.85,0,0,1,2.07-1.43,1.78,1.78,0,0,1-.65,3.5A1.85,1.85,0,0,1,706.54,70Zm2.56,4.58a4.21,4.21,0,0,0,2.8-2l9.64,1.78a6.42,6.42,0,0,0,.7,2.91l-8.07,5.46a4.34,4.34,0,0,0-3.46-.78A19.24,19.24,0,0,1,709.1,74.57Zm2.34,13a1.7,1.7,0,0,1-1.53-2.22,1.42,1.42,0,0,1,.65-.84,1.66,1.66,0,0,1,1.3-.15h0A1.66,1.66,0,0,1,713,85a1.62,1.62,0,0,1,.29,1.27,1.64,1.64,0,0,1-1.89,1.34Zm4.09-3L723.42,79a6.41,6.41,0,0,0,2.47,1.69l-1.78,9.64a4.21,4.21,0,0,0-2.85,1.9A19,19,0,0,1,715,88.11,4.15,4.15,0,0,0,715.54,84.59Zm13.4,9.07a3.53,3.53,0,0,0-2.24-2.85l1.78-9.64a5.28,5.28,0,0,0,3.17-.65l5.58,8.08a4.27,4.27,0,0,0-.85,3.47A19.59,19.59,0,0,1,728.94,93.66Zm12.57-1a1.77,1.77,0,0,1-1.48.21,1.4,1.4,0,0,1-.86-.64,1.65,1.65,0,0,1-.15-1.3h0a1.34,1.34,0,0,1,1.75-1.2h0a1.66,1.66,0,0,1,1.17.61,1.58,1.58,0,0,1,.29,1.09A1.61,1.61,0,0,1,741.51,92.68Zm1.25-4.93a4.34,4.34,0,0,0-3.51-.46l-5.6-7.89a6.42,6.42,0,0,0,1.69-2.47L745,78.71a4.21,4.21,0,0,0,1.9,2.85A18.54,18.54,0,0,1,742.76,87.75Z"/><path d="M710.72,48.6a25.75,25.75,0,0,0,6.84-8.07,4.9,4.9,0,0,0,5.24-3.36,5,5,0,0,0-2.31-5.77,25.72,25.72,0,0,0-.87-10.55,4.89,4.89,0,0,0-4.39-8.54,25.72,25.72,0,0,0-8.07-6.84A5,5,0,0,0,703.8.23,4.9,4.9,0,0,0,698,2.54a25.72,25.72,0,0,0-10.54.87,4.89,4.89,0,0,0-8.54,4.39,25.74,25.74,0,0,0-6.84,8.07A4.89,4.89,0,0,0,669.17,25,25.75,25.75,0,0,0,670,35.55a4.89,4.89,0,0,0,4.39,8.54,25.73,25.73,0,0,0,8.06,6.84,4.89,4.89,0,0,0,9.14,2.93A25.73,25.73,0,0,0,702.18,53a4.89,4.89,0,0,0,8.54-4.39Zm-5.51,3.26a2.06,2.06,0,0,1-1.05-.94A2.1,2.1,0,0,1,707.89,49a2.07,2.07,0,0,1-2.68,2.86Zm3.92-5.58a4.16,4.16,0,0,0-4.14-1L699.71,35a6.21,6.21,0,0,0,2.49-2.89l11,3.51a5.06,5.06,0,0,0,1.71,3.84A23.06,23.06,0,0,1,709.13,46.28ZM671.2,40.35a2.18,2.18,0,0,1,.91-2.82A2.1,2.1,0,0,1,674,41.26a2.18,2.18,0,0,1-2.82-.91ZM718.46,16a2.18,2.18,0,0,1-.91,2.82,2.1,2.1,0,0,1-1.92-3.73,2.18,2.18,0,0,1,2.82.91ZM697.39,33.17a5.81,5.81,0,1,1,1.15-.81A5.62,5.62,0,0,1,697.39,33.17Zm22.48,1.38a1.92,1.92,0,0,1,.13.17,2.08,2.08,0,0,1,.13,1.6,2.18,2.18,0,0,1-2.64,1.36,2.1,2.1,0,0,1,1.28-4A2.06,2.06,0,0,1,719.87,34.55Zm-5.75-1.64-11-3.59a6.21,6.21,0,0,0-.34-3.8L713,20.24a4.16,4.16,0,0,0,4,1.56,23.15,23.15,0,0,1,.75,9A4.9,4.9,0,0,0,714.12,32.91Zm-1.35-19.29a5,5,0,0,0-1.18,3.86l-10.26,5.28a7.54,7.54,0,0,0-2.75-2.21l3.58-10.89A4.87,4.87,0,0,0,706,7.89,22.67,22.67,0,0,1,712.77,13.62ZM702.94,2.9a2.09,2.09,0,0,1,1.23,1c0,.06,0,.13.06.2a2.07,2.07,0,0,1,.07,1.4,2.43,2.43,0,0,1-1.16,1.29,2.89,2.89,0,0,1-1.73.2h0l.12-.07a2,2,0,0,1-1.13-1.07,2.06,2.06,0,0,1,.76-2.72A2.1,2.1,0,0,1,702.94,2.9Zm-5.52,2.39a4.81,4.81,0,0,0,2.13,3.63l-3.59,11a6.22,6.22,0,0,0-3.8.34L686.88,10a4.16,4.16,0,0,0,1.56-4A23.28,23.28,0,0,1,697.42,5.28Zm-14.74-.71a2.18,2.18,0,0,1,2.82.91,2.1,2.1,0,0,1-3.73,1.92,2.06,2.06,0,0,1-.15-1.4A2.06,2.06,0,0,1,682.68,4.57Zm-2.43,5.69a5,5,0,0,0,3.86,1.18l5.28,10.26a7.57,7.57,0,0,0-2.21,2.75l-10.9-3.58a5.11,5.11,0,0,0-1.77-3.78A22.66,22.66,0,0,1,680.25,10.26ZM669.79,21.83a2,2,0,0,1,1-3,1.67,1.67,0,0,1,1.25,0,2,2,0,0,1,1.08,1.11h0a2,2,0,0,1,.28,1.52,1.91,1.91,0,0,1-1,1.19,1.93,1.93,0,0,1-2.61-.8Zm5.75,1.65,10.88,3.32a7.55,7.55,0,0,0,.2,3.52L676.36,35.6a5,5,0,0,0-3.83-1.28,22.33,22.33,0,0,1-.67-8.82A4.89,4.89,0,0,0,675.54,23.48Zm1.2,19a4.16,4.16,0,0,0,1-4.14L688,33.08a6.22,6.22,0,0,0,2.89,2.49l-3.51,11a5,5,0,0,0-3.84,1.71A23.08,23.08,0,0,1,676.74,42.5Zm10,11a2.08,2.08,0,0,1-1.26-1.23,1.65,1.65,0,0,1,0-1.26,2,2,0,0,1,1.11-1.07h0a1.58,1.58,0,0,1,2.38.76h0a2,2,0,0,1,.28,1.52,1.86,1.86,0,0,1-.8,1.06A1.9,1.9,0,0,1,686.71,53.5Zm5.49-2.39a5.11,5.11,0,0,0-2.1-3.61l3.32-10.9a7.56,7.56,0,0,0,3.52-.2l5.28,10.26a5,5,0,0,0-1.28,3.83A21.84,21.84,0,0,1,692.21,51.11Z"/><circle cx="721.69" cy="287.66" r="4.82"/><path d="M724.25,293.9h-5.11c-2.84,0-4.54,2.27-4.82,4.82L712.9,312c-.28,2.27,2.27,4.25,4.54,4.82v7.66a3.75,3.75,0,0,0,3.69,3.69h1.7a3.75,3.75,0,0,0,3.69-3.69h0v-7.66c2.27-.57,4.82-2.55,4.54-4.82l-1.42-13.33C728.78,296.45,726.8,293.9,724.25,293.9Z"/><circle cx="683.12" cy="293.88" r="4.82" transform="translate(-57.38 225.46) rotate(-18)"/><path d="M687.37,299l-4.82,1.42c-2.55.85-3.69,3.4-3.12,6.24l2.55,13c.57,2.27,3.4,3.4,6,3.12l2.27,7.09a3.49,3.49,0,0,0,4.54,2.27h0l1.42-.57a3.49,3.49,0,0,0,2.27-4.54h0l-2.27-7.37c2-1.13,3.69-4,2.84-6l-5.67-12.2A5.19,5.19,0,0,0,687.37,299Z"/><circle cx="648.31" cy="311.74" r="4.82" transform="translate(-59.42 440.62) rotate(-36)"/><path d="M653.91,315.17l-4,2.84a5,5,0,0,0-1.13,6.81l6.52,11.63c1.13,2,4.25,2.27,6.52,1.13l4.54,6.24a3.63,3.63,0,0,0,5.11.85h0l1.42-.85a3.63,3.63,0,0,0,.85-5.11h0l-4.54-6.24c1.7-1.7,2.27-4.82.85-6.52l-9.36-9.64A5.25,5.25,0,0,0,653.91,315.17Z"/><circle cx="620.66" cy="339.18" r="4.82" transform="translate(-18.56 641.93) rotate(-54)"/><path d="M627.25,341l-2.84,4c-1.7,2.27-.85,5.11,1.13,6.81l9.93,9.08c1.7,1.7,4.82.85,6.52-.85l6,4.54a3.63,3.63,0,0,0,5.11-.85h0l.85-1.42a3.63,3.63,0,0,0-.85-5.11h0l-6.24-4.54c.85-2.27.85-5.39-1.13-6.52l-11.63-6.52C631.78,338.42,628.66,338.71,627.25,341Z"/><circle cx="602.89" cy="374.12" r="4.82" transform="translate(60.79 831.91) rotate(-72)"/><path d="M609.66,373.59l-1.42,4.82c-.85,2.55.57,5.11,3.12,6.24l12.2,5.67c2.27.85,4.82-.85,6-2.84l7.09,2.27a3.49,3.49,0,0,0,4.54-2.27h0l.57-1.42a3.49,3.49,0,0,0-2.27-4.54h0l-7.37-2.27c.28-2.27-.85-5.39-3.12-6l-13-2.55C613.06,369.91,610.51,371,609.66,373.59Z"/><circle cx="596.61" cy="412.73" r="4.82"/><path d="M602.85,410.18v5.11c0,2.84,2.27,4.54,4.82,4.82L621,421.53c2.27.28,4.25-2.27,4.82-4.54h7.66a3.75,3.75,0,0,0,3.69-3.69h0v-1.7a3.75,3.75,0,0,0-3.69-3.69h-7.66c-.57-2.27-2.55-4.82-4.82-4.54l-13.33,1.42C605.41,405.64,602.85,407.63,602.85,410.18Z"/><circle cx="602.84" cy="451.31" r="4.82" transform="translate(-109.95 208.35) rotate(-18)"/><path d="M608,447.05l1.42,4.82c.85,2.55,3.4,3.69,6.24,3.12l13-2.55c2.27-.57,3.4-3.4,3.12-6l7.09-2.27a3.49,3.49,0,0,0,2.27-4.54h0l-.57-1.42A3.49,3.49,0,0,0,636,436h0l-7.37,2.27c-1.13-2-4-3.69-6-2.84l-12.2,5.67A5.19,5.19,0,0,0,608,447.05Z"/><circle cx="620.7" cy="486.11" r="4.82" transform="translate(-167.19 457.7) rotate(-36)"/><path d="M624.13,480.52l2.84,4a5,5,0,0,0,6.81,1.13l11.63-6.52c2-1.13,2.27-4.25,1.13-6.52l6.24-4.54a3.63,3.63,0,0,0,.85-5.11h0l-.85-1.42a3.63,3.63,0,0,0-5.11-.85h0l-6.24,4.54c-1.7-1.7-4.82-2.27-6.52-.85l-9.64,9.36A5.25,5.25,0,0,0,624.13,480.52Z"/><circle cx="648.13" cy="513.77" r="4.82" transform="translate(-148.48 736.11) rotate(-54)"/><path d="M649.94,507.18l4,2.84c2.27,1.7,5.11.85,6.81-1.13l9.08-9.93c1.7-1.7.85-4.82-.85-6.52l4.54-6a3.63,3.63,0,0,0-.85-5.11h0l-1.42-.85a3.63,3.63,0,0,0-5.11.85h0l-4.54,6.24c-2.27-.85-5.39-.85-6.52,1.13l-6.52,11.63C647.38,502.64,647.67,505.76,649.94,507.18Z"/><circle cx="683.09" cy="531.53" r="4.82" transform="translate(-33.5 1016.96) rotate(-72)"/><path d="M682.55,524.77l4.82,1.42c2.55.85,5.11-.57,6.24-3.12l5.67-12.2c.85-2.27-.85-4.82-2.84-6l2.27-7.09a3.49,3.49,0,0,0-2.27-4.54h0l-1.42-.57a3.49,3.49,0,0,0-4.54,2.27h0l-2.27,7.37c-2.27-.28-5.39.85-6,3.12l-2.55,13C678.87,521.36,680,523.91,682.55,524.77Z"/><circle cx="721.69" cy="537.81" r="4.82"/><path d="M719.14,531.57h5.11c2.84,0,4.54-2.27,4.82-4.82l1.42-13.33c.28-2.27-2.27-4.25-4.54-4.82v-7.66a3.75,3.75,0,0,0-3.69-3.69h-1.7a3.75,3.75,0,0,0-3.69,3.69h0v7.66c-2.27.57-4.82,2.55-4.54,4.82l1.42,13.33C714.6,529,716.59,531.57,719.14,531.57Z"/><circle cx="760.27" cy="531.6" r="4.82" transform="translate(-127.06 260.93) rotate(-18)"/><path d="M756,526.47l4.82-1.42c2.55-.85,3.69-3.4,3.12-6.24l-2.55-13.33c-.57-2.27-3.4-3.4-6-3.12l-2.27-7.09a3.49,3.49,0,0,0-4.54-2.27h0l-1.42.57a3.49,3.49,0,0,0-2.27,4.54h0l2.27,7.37c-2,1.13-3.69,4-2.84,6l5.67,12.2A5,5,0,0,0,756,526.47Z"/><circle cx="795.07" cy="513.72" r="4.82" transform="translate(-150.11 565.47) rotate(-36)"/><path d="M789.48,510.3l4-2.84a5,5,0,0,0,1.13-6.81L788.06,489c-1.13-2-4.25-2.27-6.52-1.13L777,481.65a3.63,3.63,0,0,0-5.11-.85h0l-1.42.85a3.63,3.63,0,0,0-.85,5.11h0l4.54,6.24c-1.7,1.7-2.27,4.82-.85,6.52l9.08,9.93A6,6,0,0,0,789.48,510.3Z"/><circle cx="822.72" cy="486.3" r="4.82" transform="translate(-54.3 866.04) rotate(-54)"/><path d="M816.14,484.49l2.84-4c1.7-2.27.85-5.11-1.13-6.81l-9.93-9.08c-1.7-1.7-4.82-.85-6.52.85l-6-4.54a3.63,3.63,0,0,0-5.11.85h0l-.85,1.42a3.63,3.63,0,0,0,.85,5.11h0l6.24,4.54c-.85,2.27-.85,5.39,1.13,6.52l11.63,6.52C811.6,487,814.72,486.76,816.14,484.49Z"/><circle cx="840.5" cy="451.33" r="4.82" transform="matrix(0.31, -0.95, 0.95, 0.31, 151.55, 1111.25)"/><path d="M833.72,451.87l1.42-4.82c.85-2.55-.57-5.11-3.12-6.24l-12.2-5.67c-2.27-.85-4.82.85-6,2.84l-7.09-2.27a3.49,3.49,0,0,0-4.54,2.27h0l-.57,1.42a3.49,3.49,0,0,0,2.27,4.54h0l7.37,2.27c-.28,2.27.85,5.39,3.12,6l13,2.55C830.32,455.56,832.87,454.43,833.72,451.87Z"/><circle class="cls-1" cx="846.77" cy="412.73" r="4.82"/><path class="cls-1" d="M840.53,415.29v-5.11c0-2.84-2.27-4.54-4.82-4.82l-13.33-1.42c-2.27-.28-4.25,2.27-4.82,4.54H809.9a3.75,3.75,0,0,0-3.69,3.69h0v1.7a3.75,3.75,0,0,0,3.69,3.69h7.66c.57,2.27,2.55,4.82,4.82,4.54l13.33-1.42C838,419.82,840.53,417.84,840.53,415.29Z"/><circle cx="840.55" cy="374.17" r="4.82" transform="translate(-74.48 278.03) rotate(-18)"/><path d="M835.43,378.42,834,373.59c-.85-2.55-3.4-3.69-6.24-3.12L814.44,373c-2.27.57-3.4,3.4-3.12,6l-7.09,2.27a3.49,3.49,0,0,0-2.27,4.54h0l.57,1.42a3.49,3.49,0,0,0,4.54,2.27h0l7.37-2.27c1.13,2,4,3.69,6,2.84l12.2-5.67A5,5,0,0,0,835.43,378.42Z"/><circle cx="822.68" cy="339.35" r="4.82" transform="translate(-42.34 548.39) rotate(-36)"/><path d="M819.26,344.95l-2.84-4a5,5,0,0,0-6.81-1.13L798,346.37c-2,1.13-2.27,4.25-1.13,6.52l-6.24,4.54a3.63,3.63,0,0,0-.85,5.11h0l.85,1.42a3.63,3.63,0,0,0,5.11.85h0l6.24-4.54c1.7,1.7,4.82,2.27,6.52.85l9.93-9.08A6,6,0,0,0,819.26,344.95Z"/><circle class="cls-1" cx="795.26" cy="311.71" r="4.82" transform="translate(75.63 771.85) rotate(-54)"/><path class="cls-1" d="M793.45,318.29l-4-2.84c-2.27-1.7-5.11-.85-6.81,1.13l-9.08,9.93c-1.7,1.7-.85,4.82.85,6.52l-4.54,6a3.63,3.63,0,0,0,.85,5.11h0l1.42.85a3.63,3.63,0,0,0,5.11-.85h0l4.54-6.24c2.27.85,5.39.85,6.52-1.13l6.52-11.63C796,322.83,795.72,319.71,793.45,318.29Z"/><circle cx="760.3" cy="293.92" r="4.82" transform="translate(245.84 926.2) rotate(-72)"/><path d="M760.83,300.7,756,299.28c-2.55-.85-5.11.57-6.24,3.12l-5.67,12.2c-.85,2.27.85,4.82,2.84,6l-2.27,7.09a3.49,3.49,0,0,0,2.27,4.54h0l1.42.57a3.49,3.49,0,0,0,4.54-2.27h0l2.27-7.37c2.27.28,5.39-.85,6-3.12l2.55-13C764.52,304.11,763.39,301.55,760.83,300.7Z"/><circle cx="721.69" cy="364.8" r="12.76"/><path d="M712.33,381.82h18.72a13,13,0,0,1,13,13v26.66a13.59,13.59,0,0,1-10.78,13v29.21a9.56,9.56,0,0,1-9.64,9.64h-4.25a9.56,9.56,0,0,1-9.64-9.64h0V434.57a13.13,13.13,0,0,1-10.78-13V394.87A13.44,13.44,0,0,1,712.33,381.82Z"/><path class="cls-2" d="M494.4,360.67c13.17-9.11,39.5-30.38,39.5-48.1,0-9.62-4.05-16.71-11.65-19.75s-17.22-.51-24.3,6.58l-3.54,3.54-3.54-3c-6.08-5.06-12.66-8.1-18.74-8.1a16.17,16.17,0,0,0-7.09,1.52c-6.58,2.53-10.13,9.62-10.13,19.24C454.91,330.29,481.24,351.55,494.4,360.67Z"/><path class="cls-2" d="M495.42,507a14.68,14.68,0,1,0,14.68,14.68A14.69,14.69,0,0,0,495.42,507Z"/><path class="cls-2" d="M469.09,149.52h52.15a6.92,6.92,0,0,0,7.09-7.09,7.24,7.24,0,0,0-7.09-7.09H469.09a7.09,7.09,0,0,0,0,14.18Z"/><path class="cls-2" d="M398.7,486.24H591.62v-316H398.7Zm50.64-191.91A23.85,23.85,0,0,1,461,283.7c9.62-4.56,22.28-2,32.91,5.57,9.62-7.6,21.27-9.62,31.9-5.57,11.14,4.56,17.72,15.19,17.72,28.86,0,28.36-44.56,57.22-47.09,58.23l-2.53,1.52-2.53-1.52c-2-1-46.58-29.87-46.58-58.74A34.21,34.21,0,0,1,449.34,294.33Z"/><path class="cls-3" d="M587.57,113.57H402.75a20.31,20.31,0,0,0-20.25,20.25V513.67h12.2a4.47,4.47,0,0,1,4.54,4.37v35.21a4.21,4.21,0,0,1-.74,2.37H587.57a20.31,20.31,0,0,0,20.25-20.25V133.82A20.31,20.31,0,0,0,587.57,113.57ZM469.09,135.34h52.15a7.24,7.24,0,0,1,7.09,7.09,6.92,6.92,0,0,1-7.09,7.09H469.09a7.09,7.09,0,0,1,0-14.18Zm26.33,401a14.68,14.68,0,1,1,14.68-14.68A14.69,14.69,0,0,1,495.42,536.37Zm96.21-50.13H398.7v-316H591.62Z"/><path d="M491.37,370.79l2.53,1.52,2.53-1.52c2.53-1,47.09-29.87,47.09-58.23,0-13.67-6.58-24.3-17.72-28.86-10.63-4.05-22.28-2-31.9,5.57-10.63-7.6-23.29-10.13-32.91-5.57a23.85,23.85,0,0,0-11.65,10.63,34.21,34.21,0,0,0-4.56,17.72C444.78,340.92,489.34,369.78,491.37,370.79ZM465,293.32a16.17,16.17,0,0,1,7.09-1.52c6.08,0,12.66,3,18.74,8.1l3.54,3,3.54-3.54c7.09-7.09,16.71-9.62,24.3-6.58s11.65,10.13,11.65,19.75c0,17.72-26.33,39-39.5,48.1-13.17-9.11-39.5-30.38-39.5-48.1C454.91,302.94,458.45,295.85,465,293.32Z"/><path class="cls-2" d="M182.45,429a62,62,0,0,1-6.55.92l55.53,80.74h54.43L213.19,404.74A44.7,44.7,0,0,1,182.45,429Z"/><path class="cls-2" d="M215.06,374.33q.27.81.51,1.63l77.33-26.2a4,4,0,0,1,3.17,0l43.09,17.68a7.17,7.17,0,0,0,5.22,0A7,7,0,0,0,348,364l10-22.49a5.57,5.57,0,0,0,.24-.66l-6,13.42-12.57-4.84,2.92-6.75-2.74,6.26a4.67,4.67,0,0,1-5.9,2.4l-27-11.13a4.41,4.41,0,0,1-2.49-2.4,4.11,4.11,0,0,1,0-3.27l11.57-26a4.41,4.41,0,0,1,2.49-2.4,4.58,4.58,0,0,1,3.4,0l10.66,4.37a6,6,0,0,0,2.72.44,7,7,0,0,0,6.35-3.93,6.43,6.43,0,0,0,0-5,7,7,0,0,0-3.63-3.49l-21.09-8.73a7.17,7.17,0,0,0-5.22,0,5.88,5.88,0,0,0-3.63,3.27l-16.55,37.12a4.22,4.22,0,0,1-2.72,2.4l-81.37,27.93q1.36,1.66,2.54,3.44A41.14,41.14,0,0,1,215.06,374.33Z"/><path class="cls-2" d="M207.62,387.1a37.78,37.78,0,0,0-.45-4.8,34.18,34.18,0,0,0-11.34-20.52c-6.12-5.89-14.74-9-23.58-9-19.5,0-35.6,15.28-35.6,34.28,0,16.86,12.78,31.2,29.87,33.88a4.55,4.55,0,0,1,1.43,0,33.16,33.16,0,0,0,4.54.22,32.77,32.77,0,0,0,7.94-.87,35.79,35.79,0,0,0,17.29-9.39,33.88,33.88,0,0,0,9.25-17A34.26,34.26,0,0,0,207.62,387.1Z"/><path d="M163.63,422.9a4.17,4.17,0,0,1,2.88-1.92c-17.09-2.68-29.87-17-29.87-33.88,0-19,16.1-34.28,35.6-34.28,8.84,0,17.46,3.06,23.58,9a34.18,34.18,0,0,1,11.34,20.52,37.78,37.78,0,0,1,.45,4.8,34.26,34.26,0,0,1-.68,6.77,33.88,33.88,0,0,1-9.25,17,33.89,33.89,0,0,0,9.47-17.25,4.83,4.83,0,0,1,3.63-3.49,4.65,4.65,0,0,1,4.76,2l1.07,1.56a38.86,38.86,0,0,0,.52-6.58c0-.83,0-1.67-.11-2.52l-3.52,1.21c-.45,0-.91.22-1.59.22a3.94,3.94,0,0,1-2.27-.65,3.69,3.69,0,0,1-2-3.06,34.18,34.18,0,0,0-11.34-20.52,4.17,4.17,0,0,1-1.36-4.15,4.41,4.41,0,0,1,2.95-3.27l2.46-.83a45.32,45.32,0,0,0-27.86-9.43c-24.72,0-44.67,19.21-44.67,43,0,21,15.89,39,37,42.32l-1.17-1.71A4.58,4.58,0,0,1,163.63,422.9Z"/><path d="M207.44,360.45h0a41.23,41.23,0,0,1,2.58,3.42Q208.8,362.11,207.44,360.45Z"/><path d="M213.19,404.74l-.12-.18a44.78,44.78,0,0,1-30.61,24.23c-2.27.44-4.31.87-6.58,1.09l0,0a62,62,0,0,0,6.55-.92A44.7,44.7,0,0,0,213.19,404.74Z"/><path d="M215.56,376h0q-.24-.82-.51-1.63C215.23,374.87,215.41,375.41,215.56,376Z"/><path d="M175.9,429.93l0,0c2.27-.22,4.31-.65,6.58-1.09a44.78,44.78,0,0,0,30.61-24.23l.12.18,72.67,105.93h11l-80.28-117-1.07-1.56a4.65,4.65,0,0,0-4.76-2,4.83,4.83,0,0,0-3.63,3.49,33.89,33.89,0,0,1-9.47,17.25,35.79,35.79,0,0,1-17.29,9.39,32.77,32.77,0,0,1-7.94.87,33.16,33.16,0,0,1-4.54-.22,4.55,4.55,0,0,0-1.43,0,4.17,4.17,0,0,0-2.88,1.92,4.58,4.58,0,0,0,0,4.8l1.17,1.71,55.65,81.25h11Z"/><path d="M194.92,357.62a4.17,4.17,0,0,0,1.36,4.15,34.18,34.18,0,0,1,11.34,20.52,3.69,3.69,0,0,0,2,3.06,3.94,3.94,0,0,0,2.27.65c.68,0,1.13-.22,1.59-.22l3.52-1.21,76.76-26.3,41.5,17a15.84,15.84,0,0,0,20.86-8.08l10-22.49a14.28,14.28,0,0,0,.23-11.79,15.75,15.75,0,0,0-8.62-8.3,14.67,14.67,0,0,0-6.12-1.31,15.8,15.8,0,0,0-14.51,9.39l-3.86,8.51-18.6-7.64,8.16-17.68,6.58,2.62a14.67,14.67,0,0,0,6.12,1.31A15.8,15.8,0,0,0,350,310.46a14.28,14.28,0,0,0,.23-11.79,15.75,15.75,0,0,0-8.62-8.3l-21.09-8.73a15.88,15.88,0,0,0-12.25-.22,15.06,15.06,0,0,0-8.62,8.3L284,325.09l-83.71,28.42-2.46.83A4.41,4.41,0,0,0,194.92,357.62Zm12.52,2.82,81.37-27.93a4.22,4.22,0,0,0,2.72-2.4L308.08,293a5.88,5.88,0,0,1,3.63-3.27,7.17,7.17,0,0,1,5.22,0L338,298.45a7,7,0,0,1,3.63,3.49,6.43,6.43,0,0,1,0,5,7,7,0,0,1-6.35,3.93,6,6,0,0,1-2.72-.44l-10.66-4.37a4.58,4.58,0,0,0-3.4,0,4.41,4.41,0,0,0-2.49,2.4l-11.57,26a4.11,4.11,0,0,0,0,3.27,4.41,4.41,0,0,0,2.49,2.4l27,11.13a4.67,4.67,0,0,0,5.9-2.4l2.74-6.26,2.82-6.52a5.81,5.81,0,0,1,.34-.79l0-.11h0a7.06,7.06,0,0,1,6.2-3.44c3.84,0,7,2.79,7,6.23a5.63,5.63,0,0,1-.3,1.8h0a5.81,5.81,0,0,1-.41.92l0,.07a5.57,5.57,0,0,1-.24.66L348,364a7,7,0,0,1-3.63,3.49,7.17,7.17,0,0,1-5.22,0l-43.09-17.68a4,4,0,0,0-3.17,0L215.56,376h0c-.15-.55-.33-1.09-.5-1.63a41.13,41.13,0,0,0-7.66-13.87Z"/><path class="cls-4" d="M352.22,354.22l6-13.42,0-.07a5.81,5.81,0,0,0,.41-.92h0a5.63,5.63,0,0,0,.3-1.8c0-3.44-3.12-6.23-7-6.23a7.06,7.06,0,0,0-6.2,3.44h0l0,.11a5.81,5.81,0,0,0-.34.79l-2.82,6.52-2.92,6.75Z"/><path d="M296.91,510.67H120.77a4.47,4.47,0,0,0-4.54,4.37v4.37H382.5v-8.73Z"/><path d="M389.84,550.93H116.23v2.32a4.47,4.47,0,0,0,4.54,4.37H399.7a4.58,4.58,0,0,0,3.8-2h-.74A20.14,20.14,0,0,1,389.84,550.93Z"/><path d="M404.23,515a4.47,4.47,0,0,0-4.54-4.37H382.5v8.73h12.66v31.52h-5.32a20.14,20.14,0,0,0,12.91,4.69h.74a4.21,4.21,0,0,0,.74-2.37Z"/><polygon class="cls-4" points="653.27 85.64 764.11 85.64 733.64 125.26 688.63 125.26 653.27 85.64"/><rect class="cls-4" x="358.96" y="305.03" width="57.39" height="73.72" transform="translate(-89.14 142.32) rotate(-18.7)"/><path d="M423.08,372.59h0l-7.38-3.34a.58.58,0,0,0-.45,0l-.19.1a.59.59,0,0,0-.13.63l1.87,5L423,391.31a.59.59,0,0,0,.51.38.63.63,0,0,0,.22-.05.67.67,0,0,0,.33-.29l2.84-6.31,6.59,6.25a.54.54,0,0,0,.58.13.58.58,0,0,0,.23-.16l1.94-2.12a.54.54,0,0,0,0-.8l-6.6-6.21,6.66-2.51a.6.6,0,0,0,.38-.52.66.66,0,0,0-.34-.55Z"/><path d="M417.11,366.13l9.56,4.33a6.11,6.11,0,0,0,1.17-6.22l-24.76-65.75a6.13,6.13,0,0,0-7.9-3.58l-45.82,17.26a6.13,6.13,0,0,0-3.58,7.9l24.76,65.75a6.13,6.13,0,0,0,7.9,3.58l35.15-13.24-1.87-5a4,4,0,0,1,.95-4.28l.18-.18.21-.15a4.16,4.16,0,0,1,1-.53,4,4,0,0,1,3.07.08M411.91,351a2.45,2.45,0,0,1-1.43,3.15l-33.3,12.54a2.45,2.45,0,0,1-3.15-1.43l0,0a2.45,2.45,0,0,1,1.43-3.15l33.3-12.54a2.45,2.45,0,0,1,3.15,1.43Zm-30.05-28a2.45,2.45,0,0,1,1.43-3.15l12.5-4.71a2.45,2.45,0,0,1,3.15,1.43l0,0a2.45,2.45,0,0,1-1.43,3.15L385,324.51a2.45,2.45,0,0,1-3.15-1.43l0,0Zm-16.27-6.41a4.77,4.77,0,1,1-2.78,6.14,4.77,4.77,0,0,1,2.78-6.14m4.54,11.15c4.18-1.57,8.3-.9,9.2,1.51s-2.25,4.29-6.43,5.86-7.8,2.24-8.7-.17,1.75-5.63,5.93-7.2m-3.37,18.83a4.16,4.16,0,0,1,2.43-5.36l30.29-11.41a4.16,4.16,0,0,1,5.36,2.43l2.83,7.52a4.16,4.16,0,0,1-2.43,5.36l-30.29,11.41a4.16,4.16,0,0,1-5.36-2.43ZM380.67,376a2.45,2.45,0,0,1-3.15-1.43l0,0a2.45,2.45,0,0,1,1.43-3.15l33.3-12.54a2.45,2.45,0,0,1,3.15,1.43l0,0a2.44,2.44,0,0,1-1.43,3.15Z"/><path d="M357.12,371.67a.67.67,0,0,0-.55.34l-9.31,20.57a.65.65,0,0,0,.1.63.59.59,0,0,0,.63.14l6.67-2.51-.86,9a.54.54,0,0,0,.51.62l2.85.31a.54.54,0,0,0,.62-.51l.82-9,6.3,2.87a.67.67,0,0,0,.44,0,.55.55,0,0,0,.2-.11.58.58,0,0,0,.14-.62l-8-21.35a.59.59,0,0,0-.51-.38"/><path class="cls-5" d="M782.11,244.85H631.38V165.29H782.11Zm-145.82-4.9H777.23V170.17H636.28Z"/><path class="cls-5" d="M666.82,226.26a21.33,21.33,0,1,1,21.33-21.33v0A21.35,21.35,0,0,1,666.82,226.26Zm0-37.76A16.47,16.47,0,1,0,683.29,205a16.47,16.47,0,0,0-16.47-16.47Z"/><polygon class="cls-5" points="684.32 129.29 642.63 80.74 774.76 80.74 733.04 129.29 729.34 126.1 764.11 85.64 653.27 85.64 688.03 126.1 684.32 129.29"/><polygon class="cls-5" points="733.64 167.59 728.76 167.59 728.76 130.14 688.63 130.14 688.63 167.59 683.75 167.59 683.75 125.26 733.64 125.26 733.64 167.59"/><rect class="cls-5" x="647.96" y="202.49" width="37.76" height="4.88"/><path class="cls-5" d="M666.82,207a2.45,2.45,0,0,1-2.45-2.45h0V194.36a2.45,2.45,0,1,1,4.88,0v10.17A2.45,2.45,0,0,1,666.82,207Z"/><polygon class="cls-5" points="633.84 225.21 607.71 225.21 607.71 184.91 633.84 184.91 633.84 189.81 612.61 189.81 612.61 220.33 633.84 220.33 633.84 225.21"/><rect class="cls-5" x="619.54" y="187.36" width="4.88" height="35.42"/><rect class="cls-5" x="686.18" y="145.21" width="45.01" height="4.88"/><path class="cls-5" d="M731.19,188.49H703.91a2.45,2.45,0,1,1,0-4.88h27.28a2.45,2.45,0,1,1,0,4.88Z"/><path class="cls-5" d="M731.19,197.94H703.91a2.45,2.45,0,1,1,0-4.88h27.28a2.45,2.45,0,1,1,0,4.88Z"/><path class="cls-5" d="M731.19,226.26H703.91a2.45,2.45,0,1,1,0-4.88h27.28a2.45,2.45,0,0,1,0,4.88Z"/><path class="cls-5" d="M731.19,216.89H703.91a2.45,2.45,0,1,1,0-4.88h27.28a2.45,2.45,0,1,1,0,4.88Z"/><path class="cls-5" d="M731.19,207.5H703.91a2.45,2.45,0,1,1,0-4.88h27.28a2.45,2.45,0,1,1,0,4.88Z"/><path class="cls-5" d="M758,202.95a9.66,9.66,0,1,1,9.66-9.66A9.66,9.66,0,0,1,758,202.95Zm0-14.41a4.78,4.78,0,1,0,4.78,4.78h0a4.78,4.78,0,0,0-4.74-4.82h0Z"/><path class="cls-1" d="M758,226.26a9.66,9.66,0,1,1,9.66-9.66A9.66,9.66,0,0,1,758,226.26Zm0-14.41a4.78,4.78,0,1,0,4.78,4.78h0a4.78,4.78,0,0,0-4.76-4.8h0Z"/><path d="M236.1,248.43a17.78,17.78,0,0,1,0,18.83,3.3,3.3,0,0,1-5.11.51l-.19-.19a3.25,3.25,0,0,1-.4-4,11,11,0,0,0,0-11.42,3.25,3.25,0,0,1,.4-4l.19-.19a3.3,3.3,0,0,1,5.11.51Zm4.6-10.13-.09.09a3.31,3.31,0,0,0-.24,4.34,24.46,24.46,0,0,1,0,30.27,3.31,3.31,0,0,0,.27,4.39l.11.11a3.33,3.33,0,0,0,5-.27,31.37,31.37,0,0,0,0-38.69,3.33,3.33,0,0,0-5-.28Zm-81.09,9.86-.19-.19a3.3,3.3,0,0,0-5.11.51,17.78,17.78,0,0,0,0,18.83,3.3,3.3,0,0,0,5.11.51l.19-.19a3.25,3.25,0,0,0,.4-4,11,11,0,0,1,0-11.42,3.25,3.25,0,0,0-.4-4.06Zm-9.9-9.9a3.33,3.33,0,0,0-5,.27,31.37,31.37,0,0,0,0,38.69,3.33,3.33,0,0,0,5,.24l.09-.09a3.31,3.31,0,0,0,.24-4.34,24.46,24.46,0,0,1,0-30.27,3.31,3.31,0,0,0-.27-4.39Zm74.44-15v69.26a10.91,10.91,0,0,1-10.7,11.05H177a10.91,10.91,0,0,1-10.7-11.05V223.22A10.91,10.91,0,0,1,177,212.17h36.49A10.91,10.91,0,0,1,224.16,223.22ZM200.95,296a2.67,2.67,0,0,0-2.67-2.67h-6.14a2.68,2.68,0,0,0,0,5.36h6.13a2.67,2.67,0,0,0,2.68-2.66S200.95,296,200.95,296Zm15-68.1a.69.69,0,0,0-.7-.69H175.2a.69.69,0,0,0-.69.69h0v59.87a.69.69,0,0,0,.69.69h40a.69.69,0,0,0,.69-.69Zm-6.24,31.78a2.92,2.92,0,0,1-2.09,3.53l-2.18.56.55,2.28a2.92,2.92,0,1,1-5.66,1.47l-.56-2.18-5,1.28.56,2.18a2.92,2.92,0,1,1-5.66,1.47h0l-.56-2.18-2.2.53a2.92,2.92,0,1,1-1.47-5.66h0l2.18-.56-1.28-5-2.18.56a2.92,2.92,0,1,1-1.47-5.66h0l2.18-.56-.52-2.21a2.92,2.92,0,1,1,5.66-1.47l.56,2.18,5-1.28-.56-2.18a2.92,2.92,0,1,1,5.66-1.47l.56,2.18,2.2-.52a2.92,2.92,0,1,1,1.47,5.66l-2.18.56,1.28,5,2.18-.56a2.93,2.93,0,0,1,3.52,2.08Zm-11.4-.06-1.28-5-5,1.28,1.28,5Z"/><path d="M210.17,118.79a11.72,11.72,0,0,0-11.71,11.67v45a11.76,11.76,0,0,0,11.71,11.71H217v19.95a2.85,2.85,0,0,0,5,1.87l13.54-15.36v16a11.75,11.75,0,0,0,11.71,11.71H281.1l19.23,21.82a2.85,2.85,0,0,0,5-1.87V221.38h6.81a11.75,11.75,0,0,0,11.71-11.71v-45A11.75,11.75,0,0,0,312.13,153H286.8V130.46a11.72,11.72,0,0,0-11.71-11.67Zm0,5.7h64.92a5.91,5.91,0,0,1,6,6v24.49a2.85,2.85,0,0,0,0,1.78v18.74a5.94,5.94,0,0,1-6,6H239.92a2.85,2.85,0,0,0-2.14.94l-1.42,1.65a2.85,2.85,0,0,0-.27.27l-13.4,15.23V184.33a2.85,2.85,0,0,0-2.85-2.85h-9.66a5.94,5.94,0,0,1-6-6v-45A5.91,5.91,0,0,1,210.17,124.49Zm3.7,10a2.85,2.85,0,0,0,.27,5.7h57a2.85,2.85,0,1,0,.08-5.7H213.87Zm0,15.67a2.85,2.85,0,1,0,.27,5.7h57a2.85,2.85,0,1,0,.08-5.7H213.87Zm72.93,8.55h25.33a6,6,0,0,1,6,6v45a6,6,0,0,1-6,6h-9.66a2.85,2.85,0,0,0-2.85,2.85V233.8l-15.09-17.14a2.85,2.85,0,0,0-2.14-1H247.22a6,6,0,0,1-6-6V187.18h33.88a11.76,11.76,0,0,0,11.71-11.71Zm-72.93,7.12a2.85,2.85,0,1,0,.27,5.7h51.29a2.85,2.85,0,1,0,.08-5.7H213.87Zm78.36,2.85a2.85,2.85,0,1,0,.27,5.7H311a2.85,2.85,0,0,0,.08-5.7H292.23Zm0,15.67a2.85,2.85,0,1,0,.27,5.7H311a2.85,2.85,0,0,0,.08-5.7H292.23ZM253.76,200a2.85,2.85,0,0,0,.27,5.7h57a2.85,2.85,0,0,0,.08-5.7H253.76Z"/><circle class="cls-4" cx="197.98" cy="360.4" r="10.79"/><circle class="cls-4" cx="171.3" cy="387.08" r="36.47"/><path d="M178.82,400h0s-1.78-1.36-1.51-3.09c.12-.78,2.6-3.4,2.6-3.4h0a15.4,15.4,0,0,0,3.78-10.29c0-7.88-5.5-14.27-12.28-14.27s-12.28,6.39-12.28,14.27a15.4,15.4,0,0,0,3.78,10.29h0s2.48,2.61,2.6,3.4c.28,1.73-1.51,3.09-1.51,3.09h0a34.38,34.38,0,0,0-16.74,8,32,32,0,0,0,48.29,0A34.36,34.36,0,0,0,178.82,400Zm31.3-39.39a13,13,0,0,0-22.5-8.85A38.55,38.55,0,1,0,206.14,370,13,13,0,0,0,210.12,360.64Zm-13-9.65a9.65,9.65,0,1,1-9.65,9.65A9.65,9.65,0,0,1,197.12,351Zm-25.71,70.17a34.37,34.37,0,1,1,13.85-65.82,13,13,0,0,0,17.36,17.06,34.37,34.37,0,0,1-31.21,48.76Zm31.44-60.6a1.16,1.16,0,0,1-1.16,1.16h-3.41v3.41h0a1.16,1.16,0,0,1-2.31,0h0v-3.41h-3.41a1.16,1.16,0,1,1,0-2.31H196V356h0a1.16,1.16,0,1,1,2.31,0h0v3.41h3.41A1.16,1.16,0,0,1,202.85,360.56Z"/><circle class="cls-4" cx="683.03" cy="189.47" r="6.42"/><circle class="cls-4" cx="667.16" cy="205.34" r="21.7"/><path d="M671.63,213h0a2.24,2.24,0,0,1-.9-1.84,9.52,9.52,0,0,1,1.55-2h0a9.16,9.16,0,0,0,2.25-6.12c0-4.69-3.27-8.49-7.31-8.49s-7.31,3.8-7.31,8.49a9.16,9.16,0,0,0,2.25,6.12h0a9.54,9.54,0,0,1,1.55,2,2.23,2.23,0,0,1-.9,1.84h0a20.46,20.46,0,0,0-10,4.74,19,19,0,0,0,28.73,0A20.44,20.44,0,0,0,671.63,213Zm18.62-23.44a7.73,7.73,0,0,0-13.39-5.27,22.94,22.94,0,1,0,11,10.83A7.71,7.71,0,0,0,690.25,189.6Zm-7.73-5.74a5.74,5.74,0,1,1-5.74,5.74A5.74,5.74,0,0,1,682.52,183.86Zm-15.3,41.75a20.45,20.45,0,1,1,8.24-39.16,7.72,7.72,0,0,0,10.33,10.15,20.45,20.45,0,0,1-18.57,29Zm18.71-36.06a.69.69,0,0,1-.69.69h-2v2h0a.69.69,0,0,1-1.38,0h0v-2h-2a.69.69,0,1,1,0-1.38h2v-2h0a.69.69,0,1,1,1.38,0h0v2h2A.69.69,0,0,1,685.93,189.56Z"/><line class="cls-6" x1="618.01" y1="552.61" x2="930.23" y2="552.61"/><line class="cls-6" x1="425.5" y1="572.76" x2="665.58" y2="572.76"/><line class="cls-6" x1="3.5" y1="554.45" x2="243.58" y2="554.45"/><line class="cls-6" x1="50.91" y1="574.76" x2="51.41" y2="574.76"/><line class="cls-7" x1="64.66" y1="574.76" x2="172.18" y2="574.76"/><line class="cls-6" x1="178.8" y1="574.76" x2="179.3" y2="574.76"/><path d="M952.6,297.72a9.34,9.34,0,1,0,11.34,6.78A9.35,9.35,0,0,0,952.6,297.72Zm3,12.08A3.11,3.11,0,1,1,957.9,306,3.12,3.12,0,0,1,955.64,309.8Zm29.42-48.94a3.13,3.13,0,0,0-1.46-2.08,3.09,3.09,0,0,0-2.52-.3c-1.33.41-32.83,10.45-50,39.19a257.91,257.91,0,0,0-12.84,24.79c-.08,0-.16,0-.24,0l-33.55,11.65a3.13,3.13,0,0,0-1.65,1.35l-13.56,22.67a3.12,3.12,0,0,0,3.44,4.62l32.51-8.18c-1.37,3.83-2.31,6.58-2.73,7.85L882,380a3.08,3.08,0,0,0-.69.95,26.32,26.32,0,0,0-7.5,8.13c-7.51,12.56.32,43.46,1.24,46.94a3.12,3.12,0,0,0,3.73,2.23l1-.25c6.4-1.61,33.91-9.12,40.93-20.87a26.45,26.45,0,0,0,3.61-10.44,3.14,3.14,0,0,0,.52-1.06l5.81-26.34c.92-1,2.91-3.09,5.63-6.12l8.18,32.5A3.11,3.11,0,0,0,947,408a3,3,0,0,0,1.21-.06,3.11,3.11,0,0,0,1.91-1.42l13.56-22.67a3.15,3.15,0,0,0,.4-2.09l-5.6-35c0-.1-.08-.17-.1-.26a258.16,258.16,0,0,0,15.78-23C991.37,294.73,985.32,262.22,985.05,260.85ZM878.41,354.9l9.12-15.26,27.23-9.46c-2.75,6.39-5.11,12.33-7,17.42a2.64,2.64,0,0,0-.38,0ZM915.35,414c-4.72,7.89-24.71,14.69-35.05,17.49-2.42-10.44-5.89-31.27-1.17-39.16a20.13,20.13,0,0,1,5.47-5.92l4.69,2.8c-2,4.68-1.79,15.26-.45,23.81a3.11,3.11,0,0,0,3.84,2.53l.27-.07c9-3.14,17.41-8.12,20.37-11.9l4.66,2.79A20.06,20.06,0,0,1,915.35,414Zm-20.88-5.77c-.82-7.48-.42-13.33.22-15.78l13.22,7.91C906.06,402.17,901.17,405.42,894.47,408.21Zm25.21-8.1L889.3,381.94l16.14-13.87,18.82,11.26Zm38.09-18.45-9.12,15.25L941.37,368a2.4,2.4,0,0,0-.16-.34c3.57-4.1,7.69-9,12-14.43Zm-30.53-7.81-18.38-11c2.88-8.52,13.53-38.59,27.53-62,12.72-21.27,34.6-31.75,43.05-35.15,1,9.06,2.11,33.29-10.61,54.56C954.85,343.65,933.39,367.27,927.25,373.85Z"/><path class="cls-1" d="M887.57,306.73l-.2-.1c-4.6-2.6-8.1-7.5-9.4-9.6,8-4.3,12.8-10.9,12.8-17.9,0-12.6-15.1-22.8-33.6-22.8a45.39,45.39,0,0,0-18.6,3.8c-1.3-.1-2.7-.2-4.1-.2-18.6,0-33.7,10.3-33.7,22.8,0,7,4.8,13.6,12.8,17.9-1.3,2.1-4.8,7-9.4,9.6l-.2.2a1.15,1.15,0,0,0-.5,1.2,1.17,1.17,0,0,0,1,.9h.2c.5,0,1,.1,1.5.1,8.1,0,15-6.5,16.8-8.3a48,48,0,0,0,11.4,1.3,45.38,45.38,0,0,0,18.6-3.8c1.3.1,2.7.2,4.1.2a52.37,52.37,0,0,0,11.4-1.3c1.8,1.9,8.7,8.3,16.9,8.3a7.57,7.57,0,0,0,1.5-.1h.2a1.06,1.06,0,0,0,1-.9A1.23,1.23,0,0,0,887.57,306.73Zm-53.2-4.1a47.46,47.46,0,0,1-11.4-1.4l-1.1-.3-.7.8-.1.1h0c-.9.9-5,5.1-10.3,6.9a33.39,33.39,0,0,0,6.1-8l.6-1.5-1.5-.7c-7.7-3.8-12.3-9.7-12.3-15.9,0-10.8,13.3-19.6,29.8-19.9-6.2,4.1-10,9.9-10,16.2,0,10.2,9.9,18.9,23.6,21.8A40.23,40.23,0,0,1,834.37,302.63Zm20.8-23.9h-3.5l-.3,3.6h3.2c0,.3.1.7.1,1v1.8c0,.3-.1.7-.1,1h-3.5l-.4,5.5c-.4.1-.8.1-1.1.2h-2.2a5.16,5.16,0,0,1-1.1-.2l.4-5.5h-3.2l-.4,5.5c-.4.1-.8.1-1.2.2h-2.1a7.38,7.38,0,0,1-1.2-.2l.5-5.5h-3.4c0-.3-.1-.7-.1-1v-1.9c0-.3.1-.6.1-1h3.7l.3-3.6h-3.4a13.66,13.66,0,0,1-.2-1.9v-.9c0-.3.1-.6.1-1H840l.4-4.7c.4-.1.8-.1,1.2-.2h2.2a5.16,5.16,0,0,1,1.1.2l-.4,4.7h3.2l.4-4.7c.4-.1.8-.1,1.2-.2h2.1a5.16,5.16,0,0,1,1.1.2l-.4,4.7h3.2a3.4,3.4,0,0,1,.1,1v.9A13.55,13.55,0,0,1,855.17,278.73Zm15.3,19.6h0c-.1-.1-.1-.1-.1-.2l-.7-.8-1.1.3a45.07,45.07,0,0,1-10.5,1.4c6.2-4.1,10-9.9,10-16.2,0-10.2-9.9-18.9-23.6-21.8a46.93,46.93,0,0,1,12.7-1.8c16.9,0,30.7,8.9,30.7,19.9,0,6.2-4.6,12.1-12.3,15.9l-1.5.7.6,1.5a35.7,35.7,0,0,0,6.1,8A27.62,27.62,0,0,1,870.47,298.33Zm-26.7-16H847l.3-3.6h-3.2Z"/><path class="cls-1" d="M213.49,150.15a2.89,2.89,0,0,0,.27,5.78h57.82a2.89,2.89,0,1,0,.08-5.78H213.49Z"/><path class="cls-8" d="M708.69,90.2a15.25,15.25,0,1,1-15.2,15.26A15.19,15.19,0,0,1,708.69,90.2Z"/><path class="cls-4" d="M715.43,98.75a2.25,2.25,0,0,0-1.53.68l-7.37,7.4-3.06-3a2.25,2.25,0,0,0-1.6-.65,2.35,2.35,0,0,0-1.51,3.83l4.57,4.49.07.06.1.1.16.12a2.3,2.3,0,0,0,2.89-.27l8.89-8.93a2.35,2.35,0,0,0-1.62-3.81Z"/><path d="M55.23,467.05v45.09a24.8,24.8,0,0,0,6.91,17.54,110.3,110.3,0,0,0,28.59,21.93,92.11,92.11,0,0,0,29-22,24.78,24.78,0,0,0,6.53-17.12V467.05A139.72,139.72,0,0,0,55.23,467.05Zm57.68,25.52L88.36,517.12a3.16,3.16,0,0,1-4.43,0l-11.47-11a3.16,3.16,0,1,1,4.38-4.56l9.24,8.88,22.36-22.36a3.16,3.16,0,0,1,4.47,4.47Z"/><path class="cls-9" d="M465,293.32a16.17,16.17,0,0,1,7.09-1.52c6.08,0,12.66,3,18.74,8.1l3.54,3,3.54-3.54c7.09-7.09,16.71-9.62,24.3-6.58s11.65,10.13,11.65,19.75c0,17.72-26.33,39-39.5,48.1-13.17-9.11-39.5-30.38-39.5-48.1C454.91,302.94,458.45,295.85,465,293.32Z"/></g></g></svg>