<svg xmlns="http://www.w3.org/2000/svg" viewBox="0 0 495.55 88.11"><defs><style>.cls-1{font-size:67.1px;font-family:AvenirNext-DemiBold, Avenir Next;font-weight:700;letter-spacing:0.03em;}.cls-2{letter-spacing:-0.06em;}</style></defs><title>socialtune-logo</title><g id="Layer_2" data-name="Layer 2"><g id="Layer_1-2" data-name="Layer 1"><text class="cls-1" transform="translate(62.88 57.31)">Social<tspan class="cls-2" x="197.15" y="0">T</tspan><tspan x="231.24" y="0">une</tspan></text><path d="M3.06,46.54A3.1,3.1,0,0,1,.24,44.69a2.89,2.89,0,0,1,0-2.31,3,3,0,0,1,1.66-1.66L5.3,39.31a3.74,3.74,0,0,1,1.15-.26,3.1,3.1,0,0,1,2.82,1.86,2.89,2.89,0,0,1,0,2.31A3.25,3.25,0,0,1,7.6,44.88L4.21,46.29A2.34,2.34,0,0,1,3.06,46.54Z"/><path d="M6.45,28.16a2.51,2.51,0,0,1-1.15-.26L1.91,26.56A3,3,0,0,1,.24,24.9a2.89,2.89,0,0,1,0-2.31,3,3,0,0,1,2.82-1.86A2.51,2.51,0,0,1,4.21,21L7.6,22.4a3.07,3.07,0,0,1,1.66,4A3,3,0,0,1,6.45,28.16Z"/><path d="M18.49,16.19a3.1,3.1,0,0,1-2.82-1.86l-1.41-3.39a2.89,2.89,0,0,1,0-2.31A3,3,0,0,1,15.93,7a3.74,3.74,0,0,1,1.15-.26A3.1,3.1,0,0,1,19.9,8.57L21.31,12a3.07,3.07,0,0,1-1.66,4A2.51,2.51,0,0,1,18.49,16.19Z"/><path d="M35.4,16.19a2.51,2.51,0,0,1-1.15-.26,3.07,3.07,0,0,1-1.66-4L34,8.57A3,3,0,0,1,36.8,6.71,2.51,2.51,0,0,1,38,7a3.07,3.07,0,0,1,1.66,4l-1.41,3.39A2.94,2.94,0,0,1,35.4,16.19Z"/><path d="M47.43,28.16a3.1,3.1,0,0,1-2.82-1.86,3.07,3.07,0,0,1,1.66-4l3.39-1.41a3.74,3.74,0,0,1,1.15-.26,3.1,3.1,0,0,1,2.82,1.86,2.89,2.89,0,0,1,0,2.31A3.25,3.25,0,0,1,52,26.5l-3.39,1.41A2.51,2.51,0,0,1,47.43,28.16Z"/><path d="M50.83,46.54a2.51,2.51,0,0,1-1.15-.26l-3.39-1.41a3,3,0,0,1-1.66-1.66,2.89,2.89,0,0,1,0-2.31,3,3,0,0,1,2.82-1.86,2.51,2.51,0,0,1,1.15.26L52,40.72a3,3,0,0,1,1.66,1.66,2.89,2.89,0,0,1,0,2.31A3.06,3.06,0,0,1,50.83,46.54Z"/><path d="M36.8,60.57A3.1,3.1,0,0,1,34,58.71l-1.41-3.39a2.89,2.89,0,0,1,0-2.31,3.25,3.25,0,0,1,1.66-1.66,3.74,3.74,0,0,1,1.15-.26,3.1,3.1,0,0,1,2.82,1.86l1.41,3.39a2.89,2.89,0,0,1,0,2.31,3.18,3.18,0,0,1-2.82,1.92Z"/><path d="M17.08,60.57a2.51,2.51,0,0,1-1.15-.26,3.09,3.09,0,0,1-1.66-4l1.41-3.39A3,3,0,0,1,18.49,51a2.51,2.51,0,0,1,1.15.26,3.07,3.07,0,0,1,1.66,4L19.9,58.65A3.13,3.13,0,0,1,17.08,60.57Z"/><path d="M26.94,47.7a12.63,12.63,0,0,1-5.12-1,13.38,13.38,0,0,1-7.3-7.3,13.1,13.1,0,0,1,0-10.31,13.44,13.44,0,0,1,12.42-8.32,12.63,12.63,0,0,1,5.12,1,13.38,13.38,0,0,1,7.3,7.3,13.1,13.1,0,0,1,0,10.31A13.38,13.38,0,0,1,26.94,47.7Zm0-20.56a6.85,6.85,0,0,0-2.75.58,7.16,7.16,0,0,0,2.75,13.77,6.85,6.85,0,0,0,2.75-.58,7.16,7.16,0,0,0-2.75-13.77Z"/></g></g></svg>