<svg xmlns="http://www.w3.org/2000/svg" viewBox="0 0 116 113.53"><defs><style>.cls-1{fill:#0068ff;}</style></defs><title>spot-trends</title><g id="Layer_2" data-name="Layer 2"><g id="Layer_1-2" data-name="Layer 1"><path d="M92.11,40.88C92.11,18.35,71.42,0,46.05,0S0,18.35,0,40.88A38.17,38.17,0,0,0,8.62,64.77a11.53,11.53,0,0,1-4.19,4.56,5.05,5.05,0,0,0-2.22,5.42,5.12,5.12,0,0,0,4.31,3.94,26.92,26.92,0,0,0,4.43.37,26.84,26.84,0,0,0,12.19-2.71,49.82,49.82,0,0,0,22.9,5.42C71.42,81.76,92.11,63.42,92.11,40.88Zm-69,26.47-2,1.23a19.07,19.07,0,0,1-7,2.46A20.61,20.61,0,0,0,17,65.63l.86-2.22-1.72-2A30.14,30.14,0,0,1,7.88,40.88c0-18.22,17.12-33,38.17-33s38.17,14.78,38.17,33-17.12,33-38.17,33a42.09,42.09,0,0,1-20.93-5.42Z"/><path class="cls-1" d="M46.05,49.87l-7.76,4.8a1.88,1.88,0,0,1-2.83-2.09l2.22-8.87-7-5.91a2,2,0,0,1,1.11-3.45l9.11-.62,3.45-8.5a1.93,1.93,0,0,1,3.57,0l3.45,8.5,9.11.62a2,2,0,0,1,1.11,3.45l-7,5.91,2.22,8.87a1.91,1.91,0,0,1-2.83,2.09Z"/><path class="cls-1" d="M116,79.55A31.47,31.47,0,0,1,107.38,101a15.34,15.34,0,0,0,6.16,7.88,1.06,1.06,0,0,1-.37,2,22.41,22.41,0,0,1-14.78-2.71,42.49,42.49,0,0,1-21.06,5.42c-17.49,0-32.14-10.1-37.06-24,1.85.12,3.57.25,5.42.25,26.11,0,48-16.5,53.44-38.42C109.35,57.51,116,67.85,116,79.55Z"/></g></g></svg>