<svg xmlns="http://www.w3.org/2000/svg" viewBox="0 0 1049.02 177.34"><defs><style>.cls-1{fill:#0068ff;}.cls-2{fill:#fff;}</style></defs><title>steps123</title><g id="Layer_2" data-name="Layer 2"><g id="Layer_1-2" data-name="Layer 1"><path class="cls-1" d="M863,81.31l-77.35,49V96l-647.54,6.56V73.16L785.65,66.6V32.26Z"/><path class="cls-1" d="M785.65,131.86a1.5,1.5,0,0,1-1.5-1.5V97.54l-646,6.55a1.5,1.5,0,0,1-1.52-1.5V73.16a1.5,1.5,0,0,1,1.48-1.5l646.06-6.55V32.26a1.5,1.5,0,0,1,2.3-1.27l77.35,49a1.5,1.5,0,0,1,0,2.53l-77.35,49A1.5,1.5,0,0,1,785.65,131.86Zm0-37.33a1.5,1.5,0,0,1,1.5,1.5v31.6l73.05-46.32L787.15,35V66.6a1.5,1.5,0,0,1-1.48,1.5L139.61,74.64v26.43l646-6.55Z"/><path d="M580.5,91.74,495.14,67.68l23.53,85.88,14.93-28.63,39.34,39.34L591.21,146l-39.51-39.34Zm.7,54.27-8.25,8.25-41.1-41.1-11.06,21.25L505.33,77.87l56.2,15.81L540.1,104.74Z"/><path d="M498.48,47.31a1.66,1.66,0,0,0-1.76,1.76v.18A1.66,1.66,0,0,0,498.48,51a1.76,1.76,0,0,0,1.76-1.76A1.91,1.91,0,0,0,498.48,47.31Z"/><path d="M498.48,21.5a1.66,1.66,0,0,0-1.76,1.76v.18a1.66,1.66,0,0,0,1.76,1.76,1.76,1.76,0,0,0,1.76-1.76A1.91,1.91,0,0,0,498.48,21.5Z"/><path d="M498.48,30.1a1.66,1.66,0,0,0-1.76,1.76V32a1.66,1.66,0,0,0,1.76,1.76A1.76,1.76,0,0,0,500.24,32,1.91,1.91,0,0,0,498.48,30.1Z"/><path d="M498.48,38.71a1.66,1.66,0,0,0-1.76,1.76v.18a1.66,1.66,0,0,0,1.76,1.76,1.76,1.76,0,0,0,1.76-1.76A1.91,1.91,0,0,0,498.48,38.71Z"/><path d="M498.48,13.07a1.66,1.66,0,0,0-1.76,1.76V15a1.66,1.66,0,0,0,1.76,1.76A1.76,1.76,0,0,0,500.24,15,1.91,1.91,0,0,0,498.48,13.07Z"/><path class="cls-2" d="M476.18,73.3h0a1.66,1.66,0,0,0,1.76-1.76,1.76,1.76,0,1,0-1.76,1.76Z"/><path class="cls-2" d="M448.6,71.55a1.66,1.66,0,0,0,1.76,1.76h.18a1.66,1.66,0,0,0,1.76-1.76,1.76,1.76,0,0,0-1.76-1.76A1.91,1.91,0,0,0,448.6,71.55Z"/><path class="cls-2" d="M460.9,71.55a1.76,1.76,0,0,0-3.51,0,1.66,1.66,0,0,0,1.76,1.76h.18A1.73,1.73,0,0,0,460.9,71.55Z"/><path class="cls-2" d="M467.75,73.3a1.66,1.66,0,0,0,1.76-1.76,1.76,1.76,0,0,0-3.51,0,1.66,1.66,0,0,0,1.76,1.76Z"/><path class="cls-2" d="M441.93,69.79a1.76,1.76,0,0,0,0,3.51h0a1.66,1.66,0,0,0,1.76-1.76A1.76,1.76,0,0,0,441.93,69.79Z"/><path d="M481.45,57h0a1.9,1.9,0,0,0,1.23.53A1.59,1.59,0,0,0,483.9,57a1.74,1.74,0,1,0-2.46,0Z"/><path d="M463.36,38.88a1.7,1.7,0,0,0,2.46,0,1.69,1.69,0,0,0,0-2.46,1.87,1.87,0,0,0-2.46,0,1.69,1.69,0,0,0,0,2.46Z"/><path d="M475.47,51a1.7,1.7,0,0,0,2.46,0,1.69,1.69,0,0,0,0-2.46,1.87,1.87,0,0,0-2.46,0,1.69,1.69,0,0,0,0,2.46Z"/><path d="M469.5,44.85a1.7,1.7,0,0,0,2.46,0,1.69,1.69,0,0,0,0-2.46,1.87,1.87,0,0,0-2.46,0,1.57,1.57,0,0,0,0,2.46Z"/><path d="M457.39,32.74a1.7,1.7,0,0,0,2.46,0,1.74,1.74,0,1,0-2.46-2.46,1.47,1.47,0,0,0,0,2.46Z"/><path class="cls-2" d="M481.45,86.13a1.7,1.7,0,0,0,0,2.46,1.9,1.9,0,0,0,1.23.53,1.59,1.59,0,0,0,1.23-.53h0a1.74,1.74,0,1,0-2.46-2.46Z"/><path d="M463.36,104.21a1.7,1.7,0,0,0,0,2.46,1.7,1.7,0,0,0,2.46,0l.18-.18a1.7,1.7,0,0,0,0-2.46A2.08,2.08,0,0,0,463.36,104.21Z"/><path class="cls-2" d="M470.56,101.23a1.59,1.59,0,0,0,1.23-.53l.18-.18a1.74,1.74,0,1,0-2.46,0A1.09,1.09,0,0,0,470.56,101.23Z"/><path class="cls-2" d="M476.7,95.08a1.59,1.59,0,0,0,1.23-.53l.18-.18a1.74,1.74,0,1,0-2.46-2.46,1.87,1.87,0,0,0,0,2.46A1,1,0,0,0,476.7,95.08Z"/><path d="M457.21,110.36a1.7,1.7,0,0,0,0,2.46,1.7,1.7,0,0,0,2.46,0h0a1.74,1.74,0,0,0-2.46-2.46Z"/><path d="M537.29,30.28a1.7,1.7,0,0,0,0,2.46,1.7,1.7,0,0,0,2.46,0h0a1.74,1.74,0,1,0-2.46-2.46Z"/><path d="M531.32,36.25a1.7,1.7,0,0,0,0,2.46,1.7,1.7,0,0,0,2.46,0l.18-.18a1.7,1.7,0,0,0,0-2.46A2.08,2.08,0,0,0,531.32,36.25Z"/><path d="M525.18,42.4a1.7,1.7,0,0,0,0,2.46,1.7,1.7,0,0,0,2.46,0l.18-.18a1.7,1.7,0,0,0,0-2.46A2.12,2.12,0,0,0,525.18,42.4Z"/><path d="M519,48.54A1.7,1.7,0,0,0,519,51a1.7,1.7,0,0,0,2.46,0l.18-.18a1.7,1.7,0,0,0,0-2.46A1.92,1.92,0,0,0,519,48.54Z"/><path d="M513.06,54.51a1.7,1.7,0,0,0,0,2.46,1.7,1.7,0,0,0,2.46,0h0a1.74,1.74,0,1,0-2.46-2.46Z"/><path d="M70,28A60.63,60.63,0,1,1,9.33,88.67,60.71,60.71,0,0,1,70,28m0-9.33a70,70,0,1,0,70,70,69.87,69.87,0,0,0-70-70ZM84.73,89.92A22.52,22.52,0,1,0,47.42,73a21.92,21.92,0,0,0,7.77,16.95,34.31,34.31,0,0,0-19.43,30.94h9.33a24.88,24.88,0,1,1,49.75,0h9.33A34.31,34.31,0,0,0,84.73,89.92ZM70,59.75A13.21,13.21,0,1,1,56.75,73,13.2,13.2,0,0,1,70,59.75Z"/><path d="M971.42,0A5.53,5.53,0,0,0,970,10.89v1.59h2.77V10.89a5.54,5.54,0,0,0,2.44-1.36l1.17.72,1.46-2.36-1.18-.73A5.42,5.42,0,0,0,977,5.54,5.56,5.56,0,0,0,971.42,0Zm0,2.77a2.77,2.77,0,1,1-2.77,2.77A2.75,2.75,0,0,1,971.42,2.77Zm-5.48,4.52-2.36,1.45L965,11.1l2.36-1.45Zm14.3,2-1.46,2.36,2.36,1.46,1.46-2.36Zm-19,.86-2.36,1.45L960.32,14l2.36-1.45Zm23.74,2L983.5,14.6l2.36,1.45,1.46-2.36Zm-28.46.86-2.36,1.46,1.45,2.36,2.36-1.46Zm33.18,2.05-1.46,2.36L990.58,19,992,16.6ZM970,15.24V18h2.77V15.24ZM951.78,16l-2.36,1.45,1.45,2.36,2.36-1.45Zm42.62,2-1.45,2.36,2.36,1.46,1.45-2.36Zm-47.34.86-2.36,1.45,1.45,2.36,2.36-1.45Zm23,1.87v2.77h2.77V20.79Zm29.08.17-1.45,2.36,2.36,1.45,1.45-2.36Zm-56.78.86L940,23.27l1.45,2.36,2.36-1.46Zm61.5,2.05-1.45,2.36,2.36,1.45,1.45-2.36Zm-66.22.86-2.36,1.45,1.45,2.36,2.36-1.45ZM970,26.33V29.1h2.77V26.33Zm38.52.44-1.45,2.36,2.36,1.46,1.45-2.36Zm-75.66.86-2.36,1.45L932,31.44,934.35,30Zm80.38,2L1011.82,32l2.36,1.45,1.45-2.36-2.36-1.45Zm-85.1.86L925.81,32l1.46,2.36,2.36-1.46ZM970,31.87v2.77h2.77V31.87Zm48,.71-1.45,2.36,2.36,1.45,1.45-2.36Zm-94.54.85-2.36,1.45,1.46,2.37,2.36-1.46-1.46-2.36Zm99.26,2-1.45,2.36,2.36,1.46,1.46-2.36Zm-104,.86-2.36,1.45,1.46,2.36,2.36-1.45ZM970,37.41v1.46a18,18,0,1,0,2.77,0V37.41Zm1.39,37.41H956.3a14,14,0,0,0-12.76,8.31H921.92a11.47,11.47,0,0,0-11.46,11.46v24.85l-2,1.19,1.42,2.38.57-.34v2h31.87v5.54H970V133h2.77v-2.77h27.71v-5.54h31.87v-1.58l1.1.58,1.3-2.45-2.41-1.28V94.61a11.47,11.47,0,0,0-11.46-11.46H999.3a14,14,0,0,0-12.76-8.31H971.42Zm37.41,8.31a12.47,12.47,0,1,0-12.47-12.47A12.49,12.49,0,0,0,1008.84,83.14Zm-74.83,0a12.47,12.47,0,1,0-12.47-12.47A12.49,12.49,0,0,0,934,83.14Zm93.43-44.76L1026,40.74l2.36,1.45,1.46-2.36ZM914,39.24l-2.36,1.46,1.46,2.36,2.36-1.45Zm118.15,2.05-1.46,2.36,2.36,1.45,1.46-2.36Zm-60.74.28a15.24,15.24,0,1,1-15.24,15.24A15.22,15.22,0,0,1,971.42,41.57Zm-62.13.57-2.36,1.45L908.38,46l2.36-1.46Zm127.59,2-1.46,2.36,2.36,1.46,1.46-2.36Zm-137.51.15A5.53,5.53,0,0,0,898,55.23v1.58h2.77V55.23a5.55,5.55,0,0,0,2.66-1.59l1.3.7L906,51.9l-1.29-.7a5,5,0,0,0-.09-2.94l1.39-.85-1.45-2.36-1.38.85a5.51,5.51,0,0,0-3.83-1.56Zm144.11,0a5.56,5.56,0,0,0-5.54,5.54,5.42,5.42,0,0,0,.18,1.32l-1.32.71,1.32,2.44,1.32-.71a5.54,5.54,0,0,0,2.66,1.59v1.5h2.77v-1.5a5.53,5.53,0,0,0-1.39-10.89ZM899.37,47.11a2.77,2.77,0,1,1-2.77,2.77A2.75,2.75,0,0,1,899.37,47.11Zm144.11,0a2.77,2.77,0,1,1-2.77,2.77A2.75,2.75,0,0,1,1043.48,47.11Zm-135,6.1-1.32,2.44L909.59,57l1.32-2.44Zm125.89,0-2.44,1.32,1.31,2.44,2.44-1.31Zm-121,2.61L912,58.27l2.44,1.32,1.31-2.44Zm116.14,0L1027,57.14l1.32,2.44,2.44-1.32-1.31-2.44ZM918.22,58.45l-1.32,2.44,1.72.92,1.31-2.44-1.72-.93Zm106.37,0-1.6.86,1.31,2.44,1.6-.86Zm17.49,1v2.77h2.77V59.46ZM898,59.55v2.77h2.77V59.55Zm36,1.39a9.7,9.7,0,1,1-9.7,9.7A9.68,9.68,0,0,1,934,60.94Zm74.83,0a9.7,9.7,0,1,1-9.7,9.7A9.68,9.68,0,0,1,1008.84,60.94ZM1042.09,65v2.77h2.77V65ZM898,65.09v2.77h2.77V65.09Zm144.11,5.46v2.77h2.77V70.55ZM898,70.63V73.4h2.77V70.63Zm144.11,5.46v2.77h2.77V76.09ZM898,76.17v2.77h2.77V76.17Zm58.32,1.39h30.24a11.13,11.13,0,0,1,10.22,6.62L997,85a12.36,12.36,0,0,1,.51,1.83,11.46,11.46,0,0,1,.2,2v38.67h-9.7V94.19h-2.77v33.26H957.57V94.19h-2.77v33.26h-9.7V88.78h0a11.4,11.4,0,0,1,.2-2A12.36,12.36,0,0,1,945.8,85l.28-.78a11.13,11.13,0,0,1,10.22-6.62Zm85.79,4.07V84.4h2.77V81.63ZM898,81.72v2.77h2.77V81.72Zm23.94,4.16h20.72a14,14,0,0,0-.31,2.89h0V121.9H921.54V99.73h-2.77V121.9h-5.54V94.56a8.65,8.65,0,0,1,8.69-8.69Zm78.3,0h20.72a8.65,8.65,0,0,1,8.69,8.69v27.34h-5.54V99.74h-2.77v22.17h-20.79V88.77h0a14,14,0,0,0-.31-2.89Zm41.88,1.29v2.77h2.77V87.17ZM898,87.26V90h2.77V87.26Zm144.11,5.46v2.77h2.77V92.71ZM898,92.8v2.77h2.77V92.8Zm144.11,5.46V101h2.77V98.26h-2.77ZM898,98.34v2.77h2.77V98.34H898Zm144.11,5.46v2.77h2.77V103.8ZM898,103.89v2.77h2.77v-2.77Zm144.11,5.46v2.77h2.77v-2.77ZM898,109.42v2.77h2.77v-2.77Zm144.11,5.46v2.77h2.77v-2.77ZM898,115v2.77h2.77V115Zm144.11,5.46v1.68a5.54,5.54,0,0,0-2.66,1.6l-2.18-1.16-1.3,2.45,2.17,1.15a5.47,5.47,0,0,0-.17,1.31,5.41,5.41,0,0,0,.27,1.61l-1.46.9,1.45,2.36,1.45-.89a5.53,5.53,0,1,0,5.22-9.33v-1.68h-2.77ZM898,120.51v1.59a5.53,5.53,0,1,0,6,8.44l-.61,1,2.36,1.46,1.45-2.36-2.36-1.46-.84,1.36a5.49,5.49,0,0,0,.95-3.08,5.56,5.56,0,0,0-4.16-5.35v-1.59Zm8.1,1.52-2.38,1.42,1.42,2.38,2.38-1.42Zm-6.72,2.65a2.77,2.77,0,1,1-2.77,2.77A2.75,2.75,0,0,1,899.37,124.67Zm144.11,0a2.77,2.77,0,1,1-2.77,2.77A2.75,2.75,0,0,1,1043.48,124.67Zm-9.09,6.73-2.36,1.45,1.45,2.37,2.36-1.46-1.45-2.36Zm-124.87.67-1.45,2.36,2.36,1.45,1.45-2.36Zm120.15,2.24-2.37,1.45,1.46,2.36,2.36-1.45ZM914.24,135l-1.45,2.36,2.36,1.45,1.45-2.36Zm55.8.78v2.77h2.77v-2.77Zm54.91,1.46-2.36,1.45L1024,141l2.36-1.45Zm-106,.66-1.46,2.36,2.36,1.46,1.46-2.36Zm101.26,2.24-2.36,1.46,1.46,2.36,2.36-1.46Zm-96.54.67-1.46,2.36,2.36,1.45,1.46-2.36Zm46.35.52v2.77h2.77V141.3Zm45.47,1.72-2.36,1.45,1.46,2.36,2.36-1.45Zm-87.1.67L927,146.05l2.36,1.45,1.46-2.36Zm82.38,2.24-2.36,1.45,1.45,2.36,2.36-1.45Zm-77.66.66L931.67,149l2.37,1.46,1.45-2.36Zm36.91.26v2.77h2.77v-2.77Zm36,2-2.36,1.45,1.45,2.36,2.36-1.46Zm-68.22.65-1.45,2.36,2.36,1.45,1.45-2.36Zm63.5,2.24L999,153.19l1.45,2.36,2.36-1.45Zm-31.31.65v2.77h2.77v-2.77Zm-27.47,0-1.45,2.36,2.36,1.45,1.45-2.36Zm54.06,2.24-2.36,1.45,1.45,2.36,2.36-1.45Zm-49.34.66-1.45,2.36,2.36,1.46,1.45-2.36Zm44.62,2.24L989.54,159l1.45,2.36,2.36-1.46Zm-21.87.38v2.77h2.77v-2.77Zm-18,.28-1.45,2.36,2.36,1.45,1.45-2.36Zm35.18,2.24-2.36,1.45,1.45,2.36,2.36-1.45Zm-30.46.67-1.45,2.36,2.36,1.45,1.45-2.36Zm25.74,2.24-2.36,1.45,1.45,2.36,2.36-1.45Zm-12.43.11v2.77h2.77v-2.77Zm1.39,2.77a5.51,5.51,0,0,0-3.83,1.56l-1.43-.88-1.45,2.36,1.43.88a5.45,5.45,0,0,0-.27,1.62,5.54,5.54,0,0,0,11.09,0,5.47,5.47,0,0,0-.7-2.64l.57.93,2.36-1.46-1.46-2.36-2.36,1.46.51.82A5.53,5.53,0,0,0,971.42,166.26Zm-10-2.22L960,166.39l2.36,1.46,1.45-2.36Zm10,5a2.77,2.77,0,1,1-2.77,2.77A2.75,2.75,0,0,1,971.42,169Z"/><polygon class="cls-2" points="581.2 146.01 572.95 154.27 531.85 113.17 520.78 134.42 505.33 77.87 561.53 93.68 540.1 104.74 581.2 146.01"/></g></g></svg>