<svg xmlns="http://www.w3.org/2000/svg" viewBox="0 0 71.97 66.36"><defs><style>.cls-1{fill:#fff;}</style></defs><title>Asset 5</title><g id="Layer_2" data-name="Layer 2"><g id="Layer_1-2" data-name="Layer 1"><path d="M72,62.06a4.31,4.31,0,0,1-4.3,4.3H4.3A4.31,4.31,0,0,1,0,62.06V13.29A4.31,4.31,0,0,1,4.3,9H23.63a6.75,6.75,0,0,0,4.73-1.93L35,.4a1.23,1.23,0,0,1,1.83,0l6.66,6.66A6.67,6.67,0,0,0,48.23,9H67.57a4.31,4.31,0,0,1,4.3,4.3V62.06Z"/><path class="cls-1" d="M36,37.88a9.69,9.69,0,1,1,9.69-9.69A9.7,9.7,0,0,1,36,37.88Z"/><path class="cls-1" d="M52.68,52.82a.86.86,0,0,0,.86-.86V49.46a8,8,0,0,0-8-8H26.39a8,8,0,0,0-8,8V52a.86.86,0,0,0,.86.86Z"/></g></g></svg>